<mxfile host="65bd71144e">
    <diagram id="a__SGPqRtPCptUaD6PLc" name="Page-1">
        <mxGraphModel grid="0" page="1" gridSize="10" guides="1" tooltips="1" connect="1" arrows="1" fold="1" pageScale="1" pageWidth="850" pageHeight="1100" math="0" shadow="0">
            <root>
                <mxCell id="0"/>
                <mxCell id="1" parent="0"/>
                <mxCell id="3" value="" style="ellipse;whiteSpace=wrap;html=1;aspect=fixed;fillColor=none;" parent="1" vertex="1">
                    <mxGeometry x="26" y="221" width="110" height="110" as="geometry"/>
                </mxCell>
                <mxCell id="50" value="" style="ellipse;shape=cloud;whiteSpace=wrap;html=1;fillColor=none;rotation=-25;" parent="1" vertex="1">
                    <mxGeometry x="178" y="232" width="120" height="80" as="geometry"/>
                </mxCell>
                <mxCell id="52" value="" style="ellipse;shape=cloud;whiteSpace=wrap;html=1;fillColor=none;rotation=-25;" parent="1" vertex="1">
                    <mxGeometry x="18" y="233" width="120" height="80" as="geometry"/>
                </mxCell>
                <mxCell id="53" value="" style="rounded=0;whiteSpace=wrap;html=1;fillColor=none;" parent="1" vertex="1">
                    <mxGeometry x="186" y="233" width="109" height="78" as="geometry"/>
                </mxCell>
                <mxCell id="54" value="" style="ellipse;shape=cloud;whiteSpace=wrap;html=1;fillColor=none;rotation=-25;" parent="1" vertex="1">
                    <mxGeometry x="658" y="233" width="120" height="80" as="geometry"/>
                </mxCell>
                <mxCell id="55" value="" style="ellipse;shape=cloud;whiteSpace=wrap;html=1;fillColor=none;rotation=-25;" parent="1" vertex="1">
                    <mxGeometry x="492" y="233" width="120" height="80" as="geometry"/>
                </mxCell>
                <mxCell id="56" value="" style="endArrow=none;html=1;" parent="1" edge="1">
                    <mxGeometry width="50" height="50" relative="1" as="geometry">
                        <mxPoint x="540" y="234" as="sourcePoint"/>
                        <mxPoint x="587" y="234" as="targetPoint"/>
                    </mxGeometry>
                </mxCell>
                <mxCell id="57" value="" style="endArrow=none;html=1;" parent="1" edge="1">
                    <mxGeometry width="50" height="50" relative="1" as="geometry">
                        <mxPoint x="520" y="313" as="sourcePoint"/>
                        <mxPoint x="568" y="313" as="targetPoint"/>
                    </mxGeometry>
                </mxCell>
                <mxCell id="58" value="" style="endArrow=none;html=1;" parent="1" edge="1">
                    <mxGeometry width="50" height="50" relative="1" as="geometry">
                        <mxPoint x="587" y="234" as="sourcePoint"/>
                        <mxPoint x="617" y="264" as="targetPoint"/>
                    </mxGeometry>
                </mxCell>
                <mxCell id="59" value="" style="endArrow=none;html=1;" parent="1" edge="1">
                    <mxGeometry width="50" height="50" relative="1" as="geometry">
                        <mxPoint x="568" y="313" as="sourcePoint"/>
                        <mxPoint x="617" y="264" as="targetPoint"/>
                    </mxGeometry>
                </mxCell>
                <mxCell id="60" value="" style="endArrow=none;html=1;" parent="1" edge="1">
                    <mxGeometry width="50" height="50" relative="1" as="geometry">
                        <mxPoint x="491" y="283" as="sourcePoint"/>
                        <mxPoint x="540" y="234" as="targetPoint"/>
                    </mxGeometry>
                </mxCell>
                <mxCell id="61" value="" style="endArrow=none;html=1;" parent="1" edge="1">
                    <mxGeometry width="50" height="50" relative="1" as="geometry">
                        <mxPoint x="490" y="283" as="sourcePoint"/>
                        <mxPoint x="520" y="313" as="targetPoint"/>
                    </mxGeometry>
                </mxCell>
                <mxCell id="62" value="" style="ellipse;shape=cloud;whiteSpace=wrap;html=1;fillColor=none;rotation=-25;" parent="1" vertex="1">
                    <mxGeometry x="340" y="232" width="120" height="80" as="geometry"/>
                </mxCell>
                <mxCell id="63" value="" style="rounded=0;whiteSpace=wrap;html=1;fillColor=none;rotation=-25;" parent="1" vertex="1">
                    <mxGeometry x="347.54999999999995" y="237.26" width="109.34" height="70.75" as="geometry"/>
                </mxCell>
                <mxCell id="64" value="" style="endArrow=none;html=1;" parent="1" edge="1">
                    <mxGeometry width="50" height="50" relative="1" as="geometry">
                        <mxPoint x="664" y="284" as="sourcePoint"/>
                        <mxPoint x="691" y="248" as="targetPoint"/>
                    </mxGeometry>
                </mxCell>
                <mxCell id="65" value="" style="endArrow=none;html=1;" parent="1" edge="1">
                    <mxGeometry width="50" height="50" relative="1" as="geometry">
                        <mxPoint x="664" y="284" as="sourcePoint"/>
                        <mxPoint x="685" y="313" as="targetPoint"/>
                    </mxGeometry>
                </mxCell>
                <mxCell id="66" value="" style="endArrow=none;html=1;" parent="1" edge="1">
                    <mxGeometry width="50" height="50" relative="1" as="geometry">
                        <mxPoint x="691" y="248" as="sourcePoint"/>
                        <mxPoint x="741" y="234" as="targetPoint"/>
                    </mxGeometry>
                </mxCell>
                <mxCell id="67" value="" style="endArrow=none;html=1;" parent="1" edge="1">
                    <mxGeometry width="50" height="50" relative="1" as="geometry">
                        <mxPoint x="741" y="234" as="sourcePoint"/>
                        <mxPoint x="754" y="235" as="targetPoint"/>
                    </mxGeometry>
                </mxCell>
                <mxCell id="68" value="" style="endArrow=none;html=1;" parent="1" edge="1">
                    <mxGeometry width="50" height="50" relative="1" as="geometry">
                        <mxPoint x="754" y="235" as="sourcePoint"/>
                        <mxPoint x="778" y="266" as="targetPoint"/>
                    </mxGeometry>
                </mxCell>
                <mxCell id="69" value="" style="endArrow=none;html=1;" parent="1" edge="1">
                    <mxGeometry width="50" height="50" relative="1" as="geometry">
                        <mxPoint x="777" y="266" as="sourcePoint"/>
                        <mxPoint x="748" y="300" as="targetPoint"/>
                    </mxGeometry>
                </mxCell>
                <mxCell id="70" value="" style="endArrow=none;html=1;" parent="1" edge="1">
                    <mxGeometry width="50" height="50" relative="1" as="geometry">
                        <mxPoint x="726" y="308" as="sourcePoint"/>
                        <mxPoint x="685" y="313" as="targetPoint"/>
                    </mxGeometry>
                </mxCell>
                <mxCell id="71" value="" style="endArrow=none;html=1;" parent="1" edge="1">
                    <mxGeometry width="50" height="50" relative="1" as="geometry">
                        <mxPoint x="748" y="300" as="sourcePoint"/>
                        <mxPoint x="726" y="308" as="targetPoint"/>
                    </mxGeometry>
                </mxCell>
                <mxCell id="72" value="Sphere" style="text;html=1;strokeColor=none;fillColor=none;align=center;verticalAlign=middle;whiteSpace=wrap;rounded=0;" parent="1" vertex="1">
                    <mxGeometry x="51" y="343" width="60" height="30" as="geometry"/>
                </mxCell>
                <mxCell id="73" value="AABB" style="text;html=1;strokeColor=none;fillColor=none;align=center;verticalAlign=middle;whiteSpace=wrap;rounded=0;" parent="1" vertex="1">
                    <mxGeometry x="210.5" y="343" width="60" height="30" as="geometry"/>
                </mxCell>
                <mxCell id="74" value="k-DOP" style="text;html=1;strokeColor=none;fillColor=none;align=center;verticalAlign=middle;whiteSpace=wrap;rounded=0;" parent="1" vertex="1">
                    <mxGeometry x="525" y="344" width="60" height="30" as="geometry"/>
                </mxCell>
                <mxCell id="75" value="OBB" style="text;html=1;strokeColor=none;fillColor=none;align=center;verticalAlign=middle;whiteSpace=wrap;rounded=0;" parent="1" vertex="1">
                    <mxGeometry x="372.22" y="344" width="60" height="30" as="geometry"/>
                </mxCell>
                <mxCell id="76" value="Convex hull" style="text;html=1;strokeColor=none;fillColor=none;align=center;verticalAlign=middle;whiteSpace=wrap;rounded=0;" parent="1" vertex="1">
                    <mxGeometry x="682" y="343" width="72" height="30" as="geometry"/>
                </mxCell>
                <mxCell id="77" value="" style="endArrow=classic;html=1;" parent="1" edge="1">
                    <mxGeometry width="50" height="50" relative="1" as="geometry">
                        <mxPoint x="120" y="200" as="sourcePoint"/>
                        <mxPoint x="680" y="200" as="targetPoint"/>
                    </mxGeometry>
                </mxCell>
                <mxCell id="78" value="" style="endArrow=classic;html=1;" parent="1" edge="1">
                    <mxGeometry width="50" height="50" relative="1" as="geometry">
                        <mxPoint x="680" y="400" as="sourcePoint"/>
                        <mxPoint x="120" y="400" as="targetPoint"/>
                    </mxGeometry>
                </mxCell>
                <mxCell id="79" value="更好的近似效果，更高的构建和更新成本" style="text;html=1;strokeColor=none;fillColor=none;align=center;verticalAlign=middle;whiteSpace=wrap;rounded=0;" parent="1" vertex="1">
                    <mxGeometry x="245" y="170" width="310" height="30" as="geometry"/>
                </mxCell>
                <mxCell id="80" value="相交性测试时，更小的计算成本" style="text;html=1;strokeColor=none;fillColor=none;align=center;verticalAlign=middle;whiteSpace=wrap;rounded=0;" parent="1" vertex="1">
                    <mxGeometry x="245" y="400" width="310" height="30" as="geometry"/>
                </mxCell>
            </root>
        </mxGraphModel>
    </diagram>
    <diagram id="BFj0bVzrAzqKHFB_9JIS" name="Page-2">
        <mxGraphModel dx="927" dy="792" grid="0" gridSize="10" guides="1" tooltips="1" connect="1" arrows="1" fold="1" page="1" pageScale="1" pageWidth="850" pageHeight="1100" math="0" shadow="0">
            <root>
                <mxCell id="0"/>
                <mxCell id="1" parent="0"/>
                <mxCell id="kTPB7zVOlX3QR2HY0rxD-3" value="B" style="ellipse;whiteSpace=wrap;html=1;aspect=fixed;" vertex="1" parent="1">
                    <mxGeometry x="120" y="160" width="40" height="40" as="geometry"/>
                </mxCell>
                <mxCell id="kTPB7zVOlX3QR2HY0rxD-5" value="C" style="ellipse;whiteSpace=wrap;html=1;aspect=fixed;" vertex="1" parent="1">
                    <mxGeometry x="280" y="160" width="40" height="40" as="geometry"/>
                </mxCell>
                <mxCell id="kTPB7zVOlX3QR2HY0rxD-8" value="D" style="whiteSpace=wrap;html=1;aspect=fixed;" vertex="1" parent="1">
                    <mxGeometry x="80" y="240" width="40" height="40" as="geometry"/>
                </mxCell>
                <mxCell id="kTPB7zVOlX3QR2HY0rxD-9" value="E" style="whiteSpace=wrap;html=1;aspect=fixed;" vertex="1" parent="1">
                    <mxGeometry x="160" y="240" width="40" height="40" as="geometry"/>
                </mxCell>
                <mxCell id="kTPB7zVOlX3QR2HY0rxD-10" value="F" style="whiteSpace=wrap;html=1;aspect=fixed;" vertex="1" parent="1">
                    <mxGeometry x="240" y="240" width="40" height="40" as="geometry"/>
                </mxCell>
                <mxCell id="kTPB7zVOlX3QR2HY0rxD-11" value="G" style="whiteSpace=wrap;html=1;aspect=fixed;" vertex="1" parent="1">
                    <mxGeometry x="320" y="240" width="40" height="40" as="geometry"/>
                </mxCell>
                <mxCell id="kTPB7zVOlX3QR2HY0rxD-12" value="" style="endArrow=none;html=1;entryX=0.5;entryY=1;entryDx=0;entryDy=0;exitX=0.5;exitY=0;exitDx=0;exitDy=0;" edge="1" parent="1" source="kTPB7zVOlX3QR2HY0rxD-3">
                    <mxGeometry width="50" height="50" relative="1" as="geometry">
                        <mxPoint x="400" y="430" as="sourcePoint"/>
                        <mxPoint x="220" y="120" as="targetPoint"/>
                    </mxGeometry>
                </mxCell>
                <mxCell id="kTPB7zVOlX3QR2HY0rxD-13" value="" style="endArrow=none;html=1;entryX=0.5;entryY=1;entryDx=0;entryDy=0;exitX=0.5;exitY=0;exitDx=0;exitDy=0;" edge="1" parent="1" source="kTPB7zVOlX3QR2HY0rxD-5">
                    <mxGeometry width="50" height="50" relative="1" as="geometry">
                        <mxPoint x="150" y="170" as="sourcePoint"/>
                        <mxPoint x="220" y="120" as="targetPoint"/>
                    </mxGeometry>
                </mxCell>
                <mxCell id="kTPB7zVOlX3QR2HY0rxD-14" value="" style="endArrow=none;html=1;entryX=0.5;entryY=1;entryDx=0;entryDy=0;exitX=0.5;exitY=0;exitDx=0;exitDy=0;" edge="1" parent="1" source="kTPB7zVOlX3QR2HY0rxD-8">
                    <mxGeometry width="50" height="50" relative="1" as="geometry">
                        <mxPoint x="60" y="240" as="sourcePoint"/>
                        <mxPoint x="140" y="200" as="targetPoint"/>
                    </mxGeometry>
                </mxCell>
                <mxCell id="kTPB7zVOlX3QR2HY0rxD-16" value="" style="endArrow=none;html=1;entryX=0.5;entryY=1;entryDx=0;entryDy=0;exitX=0.5;exitY=0;exitDx=0;exitDy=0;" edge="1" parent="1">
                    <mxGeometry width="50" height="50" relative="1" as="geometry">
                        <mxPoint x="260" y="240" as="sourcePoint"/>
                        <mxPoint x="300" y="200" as="targetPoint"/>
                    </mxGeometry>
                </mxCell>
                <mxCell id="kTPB7zVOlX3QR2HY0rxD-17" value="" style="endArrow=none;html=1;entryX=0.5;entryY=1;entryDx=0;entryDy=0;exitX=0.5;exitY=0;exitDx=0;exitDy=0;" edge="1" parent="1" source="kTPB7zVOlX3QR2HY0rxD-9" target="kTPB7zVOlX3QR2HY0rxD-3">
                    <mxGeometry width="50" height="50" relative="1" as="geometry">
                        <mxPoint x="120" y="260" as="sourcePoint"/>
                        <mxPoint x="160" y="220" as="targetPoint"/>
                    </mxGeometry>
                </mxCell>
                <mxCell id="kTPB7zVOlX3QR2HY0rxD-18" value="" style="endArrow=none;html=1;entryX=0.5;entryY=1;entryDx=0;entryDy=0;exitX=0.5;exitY=0;exitDx=0;exitDy=0;" edge="1" parent="1">
                    <mxGeometry width="50" height="50" relative="1" as="geometry">
                        <mxPoint x="340" y="240" as="sourcePoint"/>
                        <mxPoint x="300" y="200" as="targetPoint"/>
                    </mxGeometry>
                </mxCell>
                <mxCell id="kTPB7zVOlX3QR2HY0rxD-33" value="B" style="ellipse;whiteSpace=wrap;html=1;aspect=fixed;" vertex="1" parent="1">
                    <mxGeometry x="600" y="240" width="40" height="40" as="geometry"/>
                </mxCell>
                <mxCell id="kTPB7zVOlX3QR2HY0rxD-34" value="C" style="ellipse;whiteSpace=wrap;html=1;aspect=fixed;" vertex="1" parent="1">
                    <mxGeometry x="640" y="160" width="40" height="40" as="geometry"/>
                </mxCell>
                <mxCell id="kTPB7zVOlX3QR2HY0rxD-35" value="D" style="whiteSpace=wrap;html=1;aspect=fixed;" vertex="1" parent="1">
                    <mxGeometry x="560" y="320" width="40" height="40" as="geometry"/>
                </mxCell>
                <mxCell id="kTPB7zVOlX3QR2HY0rxD-36" value="E" style="whiteSpace=wrap;html=1;aspect=fixed;" vertex="1" parent="1">
                    <mxGeometry x="640" y="320" width="40" height="40" as="geometry"/>
                </mxCell>
                <mxCell id="kTPB7zVOlX3QR2HY0rxD-37" value="F" style="whiteSpace=wrap;html=1;aspect=fixed;" vertex="1" parent="1">
                    <mxGeometry x="480" y="160" width="40" height="40" as="geometry"/>
                </mxCell>
                <mxCell id="kTPB7zVOlX3QR2HY0rxD-38" value="G" style="whiteSpace=wrap;html=1;aspect=fixed;" vertex="1" parent="1">
                    <mxGeometry x="680" y="240" width="40" height="40" as="geometry"/>
                </mxCell>
                <mxCell id="kTPB7zVOlX3QR2HY0rxD-39" value="" style="endArrow=none;html=1;entryX=0.5;entryY=1;entryDx=0;entryDy=0;exitX=0.5;exitY=0;exitDx=0;exitDy=0;" edge="1" parent="1" source="kTPB7zVOlX3QR2HY0rxD-37">
                    <mxGeometry width="50" height="50" relative="1" as="geometry">
                        <mxPoint x="760" y="430" as="sourcePoint"/>
                        <mxPoint x="580" y="120" as="targetPoint"/>
                    </mxGeometry>
                </mxCell>
                <mxCell id="kTPB7zVOlX3QR2HY0rxD-40" value="" style="endArrow=none;html=1;entryX=0.5;entryY=1;entryDx=0;entryDy=0;exitX=0.5;exitY=0;exitDx=0;exitDy=0;" edge="1" parent="1" source="kTPB7zVOlX3QR2HY0rxD-34">
                    <mxGeometry width="50" height="50" relative="1" as="geometry">
                        <mxPoint x="510" y="170" as="sourcePoint"/>
                        <mxPoint x="580" y="120" as="targetPoint"/>
                    </mxGeometry>
                </mxCell>
                <mxCell id="kTPB7zVOlX3QR2HY0rxD-41" value="" style="endArrow=none;html=1;entryX=0.5;entryY=1;entryDx=0;entryDy=0;exitX=0.5;exitY=0;exitDx=0;exitDy=0;" edge="1" parent="1" source="kTPB7zVOlX3QR2HY0rxD-35">
                    <mxGeometry width="50" height="50" relative="1" as="geometry">
                        <mxPoint x="540" y="320" as="sourcePoint"/>
                        <mxPoint x="620" y="280" as="targetPoint"/>
                    </mxGeometry>
                </mxCell>
                <mxCell id="kTPB7zVOlX3QR2HY0rxD-42" value="" style="endArrow=none;html=1;entryX=0.5;entryY=1;entryDx=0;entryDy=0;exitX=0.5;exitY=0;exitDx=0;exitDy=0;" edge="1" parent="1">
                    <mxGeometry width="50" height="50" relative="1" as="geometry">
                        <mxPoint x="620" y="240" as="sourcePoint"/>
                        <mxPoint x="660" y="200" as="targetPoint"/>
                    </mxGeometry>
                </mxCell>
                <mxCell id="kTPB7zVOlX3QR2HY0rxD-43" value="" style="endArrow=none;html=1;entryX=0.5;entryY=1;entryDx=0;entryDy=0;exitX=0.5;exitY=0;exitDx=0;exitDy=0;" edge="1" parent="1" source="kTPB7zVOlX3QR2HY0rxD-36" target="kTPB7zVOlX3QR2HY0rxD-33">
                    <mxGeometry width="50" height="50" relative="1" as="geometry">
                        <mxPoint x="600" y="340" as="sourcePoint"/>
                        <mxPoint x="640" y="300" as="targetPoint"/>
                    </mxGeometry>
                </mxCell>
                <mxCell id="kTPB7zVOlX3QR2HY0rxD-44" value="" style="endArrow=none;html=1;entryX=0.5;entryY=1;entryDx=0;entryDy=0;exitX=0.5;exitY=0;exitDx=0;exitDy=0;" edge="1" parent="1">
                    <mxGeometry width="50" height="50" relative="1" as="geometry">
                        <mxPoint x="700" y="240" as="sourcePoint"/>
                        <mxPoint x="660" y="200" as="targetPoint"/>
                    </mxGeometry>
                </mxCell>
                <mxCell id="kTPB7zVOlX3QR2HY0rxD-46" value="" style="shape=flexArrow;endArrow=classic;startArrow=classic;html=1;" edge="1" parent="1">
                    <mxGeometry width="100" height="100" relative="1" as="geometry">
                        <mxPoint x="360" y="200" as="sourcePoint"/>
                        <mxPoint x="440" y="200" as="targetPoint"/>
                    </mxGeometry>
                </mxCell>
                <mxCell id="kTPB7zVOlX3QR2HY0rxD-53" value="" style="ellipse;whiteSpace=wrap;html=1;aspect=fixed;" vertex="1" parent="1">
                    <mxGeometry x="230" y="400" width="40" height="40" as="geometry"/>
                </mxCell>
                <mxCell id="kTPB7zVOlX3QR2HY0rxD-54" value="内部节点" style="text;html=1;align=center;verticalAlign=middle;resizable=0;points=[];autosize=1;strokeColor=none;fillColor=none;" vertex="1" parent="1">
                    <mxGeometry x="265" y="405" width="70" height="30" as="geometry"/>
                </mxCell>
                <mxCell id="kTPB7zVOlX3QR2HY0rxD-55" value="" style="whiteSpace=wrap;html=1;aspect=fixed;" vertex="1" parent="1">
                    <mxGeometry x="430" y="400" width="40" height="40" as="geometry"/>
                </mxCell>
                <mxCell id="kTPB7zVOlX3QR2HY0rxD-56" value="叶节点" style="text;html=1;align=center;verticalAlign=middle;resizable=0;points=[];autosize=1;strokeColor=none;fillColor=none;" vertex="1" parent="1">
                    <mxGeometry x="475" y="405" width="60" height="30" as="geometry"/>
                </mxCell>
                <mxCell id="kTPB7zVOlX3QR2HY0rxD-57" value="A" style="ellipse;whiteSpace=wrap;html=1;aspect=fixed;" vertex="1" parent="1">
                    <mxGeometry x="200" y="80" width="40" height="40" as="geometry"/>
                </mxCell>
                <mxCell id="kTPB7zVOlX3QR2HY0rxD-58" value="A" style="ellipse;whiteSpace=wrap;html=1;aspect=fixed;" vertex="1" parent="1">
                    <mxGeometry x="560" y="80" width="40" height="40" as="geometry"/>
                </mxCell>
                <mxCell id="kTPB7zVOlX3QR2HY0rxD-59" value="2" style="ellipse;whiteSpace=wrap;html=1;aspect=fixed;" vertex="1" parent="1">
                    <mxGeometry x="120" y="680" width="40" height="40" as="geometry"/>
                </mxCell>
                <mxCell id="kTPB7zVOlX3QR2HY0rxD-60" value="3" style="ellipse;whiteSpace=wrap;html=1;aspect=fixed;" vertex="1" parent="1">
                    <mxGeometry x="280" y="680" width="40" height="40" as="geometry"/>
                </mxCell>
                <mxCell id="kTPB7zVOlX3QR2HY0rxD-61" value="A" style="whiteSpace=wrap;html=1;aspect=fixed;" vertex="1" parent="1">
                    <mxGeometry x="80" y="760" width="40" height="40" as="geometry"/>
                </mxCell>
                <mxCell id="kTPB7zVOlX3QR2HY0rxD-62" value="B" style="whiteSpace=wrap;html=1;aspect=fixed;" vertex="1" parent="1">
                    <mxGeometry x="160" y="760" width="40" height="40" as="geometry"/>
                </mxCell>
                <mxCell id="kTPB7zVOlX3QR2HY0rxD-64" value="D" style="whiteSpace=wrap;html=1;aspect=fixed;" vertex="1" parent="1">
                    <mxGeometry x="320" y="760" width="40" height="40" as="geometry"/>
                </mxCell>
                <mxCell id="kTPB7zVOlX3QR2HY0rxD-65" value="" style="endArrow=none;html=1;entryX=0.5;entryY=1;entryDx=0;entryDy=0;exitX=0.5;exitY=0;exitDx=0;exitDy=0;" edge="1" parent="1" source="kTPB7zVOlX3QR2HY0rxD-59">
                    <mxGeometry width="50" height="50" relative="1" as="geometry">
                        <mxPoint x="400" y="950" as="sourcePoint"/>
                        <mxPoint x="220" y="640" as="targetPoint"/>
                    </mxGeometry>
                </mxCell>
                <mxCell id="kTPB7zVOlX3QR2HY0rxD-66" value="" style="endArrow=none;html=1;entryX=0.5;entryY=1;entryDx=0;entryDy=0;exitX=0.5;exitY=0;exitDx=0;exitDy=0;" edge="1" parent="1" source="kTPB7zVOlX3QR2HY0rxD-60">
                    <mxGeometry width="50" height="50" relative="1" as="geometry">
                        <mxPoint x="150" y="690" as="sourcePoint"/>
                        <mxPoint x="220" y="640" as="targetPoint"/>
                    </mxGeometry>
                </mxCell>
                <mxCell id="kTPB7zVOlX3QR2HY0rxD-67" value="" style="endArrow=none;html=1;entryX=0.5;entryY=1;entryDx=0;entryDy=0;exitX=0.5;exitY=0;exitDx=0;exitDy=0;" edge="1" parent="1" source="kTPB7zVOlX3QR2HY0rxD-61">
                    <mxGeometry width="50" height="50" relative="1" as="geometry">
                        <mxPoint x="60" y="760" as="sourcePoint"/>
                        <mxPoint x="140" y="720" as="targetPoint"/>
                    </mxGeometry>
                </mxCell>
                <mxCell id="kTPB7zVOlX3QR2HY0rxD-68" value="" style="endArrow=none;html=1;entryX=0.5;entryY=1;entryDx=0;entryDy=0;exitX=0.5;exitY=0;exitDx=0;exitDy=0;" edge="1" parent="1">
                    <mxGeometry width="50" height="50" relative="1" as="geometry">
                        <mxPoint x="260" y="760" as="sourcePoint"/>
                        <mxPoint x="300" y="720" as="targetPoint"/>
                    </mxGeometry>
                </mxCell>
                <mxCell id="kTPB7zVOlX3QR2HY0rxD-69" value="" style="endArrow=none;html=1;entryX=0.5;entryY=1;entryDx=0;entryDy=0;exitX=0.5;exitY=0;exitDx=0;exitDy=0;" edge="1" parent="1" source="kTPB7zVOlX3QR2HY0rxD-62" target="kTPB7zVOlX3QR2HY0rxD-59">
                    <mxGeometry width="50" height="50" relative="1" as="geometry">
                        <mxPoint x="120" y="780" as="sourcePoint"/>
                        <mxPoint x="160" y="740" as="targetPoint"/>
                    </mxGeometry>
                </mxCell>
                <mxCell id="kTPB7zVOlX3QR2HY0rxD-70" value="" style="endArrow=none;html=1;entryX=0.5;entryY=1;entryDx=0;entryDy=0;exitX=0.5;exitY=0;exitDx=0;exitDy=0;" edge="1" parent="1">
                    <mxGeometry width="50" height="50" relative="1" as="geometry">
                        <mxPoint x="340" y="760" as="sourcePoint"/>
                        <mxPoint x="300" y="720" as="targetPoint"/>
                    </mxGeometry>
                </mxCell>
                <mxCell id="kTPB7zVOlX3QR2HY0rxD-71" value="1" style="ellipse;whiteSpace=wrap;html=1;aspect=fixed;" vertex="1" parent="1">
                    <mxGeometry x="200" y="600" width="40" height="40" as="geometry"/>
                </mxCell>
                <mxCell id="kTPB7zVOlX3QR2HY0rxD-77" value="2" style="ellipse;whiteSpace=wrap;html=1;aspect=fixed;" vertex="1" parent="1">
                    <mxGeometry x="480" y="680" width="40" height="40" as="geometry"/>
                </mxCell>
                <mxCell id="kTPB7zVOlX3QR2HY0rxD-78" value="3" style="ellipse;whiteSpace=wrap;html=1;aspect=fixed;" vertex="1" parent="1">
                    <mxGeometry x="640" y="680" width="40" height="40" as="geometry"/>
                </mxCell>
                <mxCell id="kTPB7zVOlX3QR2HY0rxD-79" value="A" style="whiteSpace=wrap;html=1;aspect=fixed;" vertex="1" parent="1">
                    <mxGeometry x="440" y="760" width="40" height="40" as="geometry"/>
                </mxCell>
                <mxCell id="kTPB7zVOlX3QR2HY0rxD-80" value="B" style="whiteSpace=wrap;html=1;aspect=fixed;" vertex="1" parent="1">
                    <mxGeometry x="520" y="760" width="40" height="40" as="geometry"/>
                </mxCell>
                <mxCell id="kTPB7zVOlX3QR2HY0rxD-81" value="D" style="whiteSpace=wrap;html=1;aspect=fixed;" vertex="1" parent="1">
                    <mxGeometry x="680" y="760" width="40" height="40" as="geometry"/>
                </mxCell>
                <mxCell id="kTPB7zVOlX3QR2HY0rxD-82" value="" style="endArrow=none;html=1;entryX=0.5;entryY=1;entryDx=0;entryDy=0;exitX=0.5;exitY=0;exitDx=0;exitDy=0;" edge="1" parent="1" source="kTPB7zVOlX3QR2HY0rxD-77">
                    <mxGeometry width="50" height="50" relative="1" as="geometry">
                        <mxPoint x="760" y="950" as="sourcePoint"/>
                        <mxPoint x="580" y="640" as="targetPoint"/>
                    </mxGeometry>
                </mxCell>
                <mxCell id="kTPB7zVOlX3QR2HY0rxD-83" value="" style="endArrow=none;html=1;entryX=0.5;entryY=1;entryDx=0;entryDy=0;exitX=0.5;exitY=0;exitDx=0;exitDy=0;" edge="1" parent="1" source="kTPB7zVOlX3QR2HY0rxD-78">
                    <mxGeometry width="50" height="50" relative="1" as="geometry">
                        <mxPoint x="510" y="690" as="sourcePoint"/>
                        <mxPoint x="580" y="640" as="targetPoint"/>
                    </mxGeometry>
                </mxCell>
                <mxCell id="kTPB7zVOlX3QR2HY0rxD-84" value="" style="endArrow=none;html=1;entryX=0.5;entryY=1;entryDx=0;entryDy=0;exitX=0.5;exitY=0;exitDx=0;exitDy=0;" edge="1" parent="1" source="kTPB7zVOlX3QR2HY0rxD-79">
                    <mxGeometry width="50" height="50" relative="1" as="geometry">
                        <mxPoint x="420" y="760" as="sourcePoint"/>
                        <mxPoint x="500" y="720" as="targetPoint"/>
                    </mxGeometry>
                </mxCell>
                <mxCell id="kTPB7zVOlX3QR2HY0rxD-85" value="" style="endArrow=none;html=1;entryX=0.5;entryY=1;entryDx=0;entryDy=0;exitX=0.5;exitY=0;exitDx=0;exitDy=0;" edge="1" parent="1">
                    <mxGeometry width="50" height="50" relative="1" as="geometry">
                        <mxPoint x="620" y="760" as="sourcePoint"/>
                        <mxPoint x="660" y="720" as="targetPoint"/>
                    </mxGeometry>
                </mxCell>
                <mxCell id="kTPB7zVOlX3QR2HY0rxD-86" value="" style="endArrow=none;html=1;entryX=0.5;entryY=1;entryDx=0;entryDy=0;exitX=0.5;exitY=0;exitDx=0;exitDy=0;" edge="1" parent="1" source="kTPB7zVOlX3QR2HY0rxD-80" target="kTPB7zVOlX3QR2HY0rxD-77">
                    <mxGeometry width="50" height="50" relative="1" as="geometry">
                        <mxPoint x="480" y="780" as="sourcePoint"/>
                        <mxPoint x="520" y="740" as="targetPoint"/>
                    </mxGeometry>
                </mxCell>
                <mxCell id="kTPB7zVOlX3QR2HY0rxD-87" value="" style="endArrow=none;html=1;entryX=0.5;entryY=1;entryDx=0;entryDy=0;exitX=0.5;exitY=0;exitDx=0;exitDy=0;" edge="1" parent="1">
                    <mxGeometry width="50" height="50" relative="1" as="geometry">
                        <mxPoint x="700" y="760" as="sourcePoint"/>
                        <mxPoint x="660" y="720" as="targetPoint"/>
                    </mxGeometry>
                </mxCell>
                <mxCell id="kTPB7zVOlX3QR2HY0rxD-88" value="1" style="ellipse;whiteSpace=wrap;html=1;aspect=fixed;" vertex="1" parent="1">
                    <mxGeometry x="560" y="600" width="40" height="40" as="geometry"/>
                </mxCell>
                <mxCell id="kTPB7zVOlX3QR2HY0rxD-89" value="4" style="ellipse;whiteSpace=wrap;html=1;aspect=fixed;" vertex="1" parent="1">
                    <mxGeometry x="600" y="760" width="40" height="40" as="geometry"/>
                </mxCell>
                <mxCell id="kTPB7zVOlX3QR2HY0rxD-90" value="C" style="whiteSpace=wrap;html=1;aspect=fixed;" vertex="1" parent="1">
                    <mxGeometry x="560" y="840" width="40" height="40" as="geometry"/>
                </mxCell>
                <mxCell id="kTPB7zVOlX3QR2HY0rxD-91" value="E" style="whiteSpace=wrap;html=1;aspect=fixed;" vertex="1" parent="1">
                    <mxGeometry x="640" y="840" width="40" height="40" as="geometry"/>
                </mxCell>
                <mxCell id="kTPB7zVOlX3QR2HY0rxD-92" value="" style="endArrow=none;html=1;entryX=0.5;entryY=1;entryDx=0;entryDy=0;exitX=0.5;exitY=0;exitDx=0;exitDy=0;" edge="1" parent="1">
                    <mxGeometry width="50" height="50" relative="1" as="geometry">
                        <mxPoint x="580" y="840" as="sourcePoint"/>
                        <mxPoint x="620" y="800" as="targetPoint"/>
                    </mxGeometry>
                </mxCell>
                <mxCell id="kTPB7zVOlX3QR2HY0rxD-93" value="" style="endArrow=none;html=1;entryX=0.5;entryY=1;entryDx=0;entryDy=0;exitX=0.5;exitY=0;exitDx=0;exitDy=0;" edge="1" parent="1">
                    <mxGeometry width="50" height="50" relative="1" as="geometry">
                        <mxPoint x="660" y="840" as="sourcePoint"/>
                        <mxPoint x="620" y="800" as="targetPoint"/>
                    </mxGeometry>
                </mxCell>
                <mxCell id="kTPB7zVOlX3QR2HY0rxD-94" value="C" style="whiteSpace=wrap;html=1;aspect=fixed;" vertex="1" parent="1">
                    <mxGeometry x="240" y="760" width="40" height="40" as="geometry"/>
                </mxCell>
                <mxCell id="kTPB7zVOlX3QR2HY0rxD-95" value="E" style="whiteSpace=wrap;html=1;aspect=fixed;" vertex="1" parent="1">
                    <mxGeometry x="270" y="540" width="40" height="40" as="geometry"/>
                </mxCell>
                <mxCell id="kTPB7zVOlX3QR2HY0rxD-97" value="" style="endArrow=classic;html=1;dashed=1;" edge="1" parent="1">
                    <mxGeometry width="50" height="50" relative="1" as="geometry">
                        <mxPoint x="280" y="590" as="sourcePoint"/>
                        <mxPoint x="250" y="620" as="targetPoint"/>
                    </mxGeometry>
                </mxCell>
            </root>
        </mxGraphModel>
    </diagram>
    <diagram id="RFdHk69Eqkuy1pKN5LAw" name="Page-3">
        <mxGraphModel dx="927" dy="792" grid="0" gridSize="10" guides="1" tooltips="1" connect="1" arrows="1" fold="1" page="1" pageScale="1" pageWidth="850" pageHeight="1100" math="0" shadow="0">
            <root>
                <mxCell id="0"/>
                <mxCell id="1" parent="0"/>
                <mxCell id="NQOJJp5-3qrspzleDrJq-1" value="2" style="ellipse;whiteSpace=wrap;html=1;aspect=fixed;" vertex="1" parent="1">
                    <mxGeometry x="80" y="160" width="40" height="40" as="geometry"/>
                </mxCell>
                <mxCell id="NQOJJp5-3qrspzleDrJq-2" value="3" style="ellipse;whiteSpace=wrap;html=1;aspect=fixed;" vertex="1" parent="1">
                    <mxGeometry x="240" y="160" width="40" height="40" as="geometry"/>
                </mxCell>
                <mxCell id="NQOJJp5-3qrspzleDrJq-3" value="A" style="whiteSpace=wrap;html=1;aspect=fixed;" vertex="1" parent="1">
                    <mxGeometry x="40" y="240" width="40" height="40" as="geometry"/>
                </mxCell>
                <mxCell id="NQOJJp5-3qrspzleDrJq-4" value="B" style="whiteSpace=wrap;html=1;aspect=fixed;" vertex="1" parent="1">
                    <mxGeometry x="120" y="240" width="40" height="40" as="geometry"/>
                </mxCell>
                <mxCell id="NQOJJp5-3qrspzleDrJq-5" value="D" style="whiteSpace=wrap;html=1;aspect=fixed;" vertex="1" parent="1">
                    <mxGeometry x="280" y="240" width="40" height="40" as="geometry"/>
                </mxCell>
                <mxCell id="NQOJJp5-3qrspzleDrJq-6" value="" style="endArrow=none;html=1;entryX=0.5;entryY=1;entryDx=0;entryDy=0;exitX=0.5;exitY=0;exitDx=0;exitDy=0;" edge="1" parent="1" source="NQOJJp5-3qrspzleDrJq-1">
                    <mxGeometry width="50" height="50" relative="1" as="geometry">
                        <mxPoint x="360" y="430" as="sourcePoint"/>
                        <mxPoint x="180" y="120" as="targetPoint"/>
                    </mxGeometry>
                </mxCell>
                <mxCell id="NQOJJp5-3qrspzleDrJq-7" value="" style="endArrow=none;html=1;entryX=0.5;entryY=1;entryDx=0;entryDy=0;exitX=0.5;exitY=0;exitDx=0;exitDy=0;" edge="1" parent="1" source="NQOJJp5-3qrspzleDrJq-2">
                    <mxGeometry width="50" height="50" relative="1" as="geometry">
                        <mxPoint x="110" y="170" as="sourcePoint"/>
                        <mxPoint x="180" y="120" as="targetPoint"/>
                    </mxGeometry>
                </mxCell>
                <mxCell id="NQOJJp5-3qrspzleDrJq-8" value="" style="endArrow=none;html=1;entryX=0.5;entryY=1;entryDx=0;entryDy=0;exitX=0.5;exitY=0;exitDx=0;exitDy=0;" edge="1" parent="1" source="NQOJJp5-3qrspzleDrJq-3">
                    <mxGeometry width="50" height="50" relative="1" as="geometry">
                        <mxPoint x="20" y="240" as="sourcePoint"/>
                        <mxPoint x="100" y="200" as="targetPoint"/>
                    </mxGeometry>
                </mxCell>
                <mxCell id="NQOJJp5-3qrspzleDrJq-9" value="" style="endArrow=none;html=1;entryX=0.5;entryY=1;entryDx=0;entryDy=0;exitX=0.5;exitY=0;exitDx=0;exitDy=0;" edge="1" parent="1">
                    <mxGeometry width="50" height="50" relative="1" as="geometry">
                        <mxPoint x="220" y="240" as="sourcePoint"/>
                        <mxPoint x="260" y="200" as="targetPoint"/>
                    </mxGeometry>
                </mxCell>
                <mxCell id="NQOJJp5-3qrspzleDrJq-10" value="" style="endArrow=none;html=1;entryX=0.5;entryY=1;entryDx=0;entryDy=0;exitX=0.5;exitY=0;exitDx=0;exitDy=0;" edge="1" parent="1" source="NQOJJp5-3qrspzleDrJq-4" target="NQOJJp5-3qrspzleDrJq-1">
                    <mxGeometry width="50" height="50" relative="1" as="geometry">
                        <mxPoint x="80" y="260" as="sourcePoint"/>
                        <mxPoint x="120" y="220" as="targetPoint"/>
                    </mxGeometry>
                </mxCell>
                <mxCell id="NQOJJp5-3qrspzleDrJq-11" value="" style="endArrow=none;html=1;entryX=0.5;entryY=1;entryDx=0;entryDy=0;exitX=0.5;exitY=0;exitDx=0;exitDy=0;" edge="1" parent="1">
                    <mxGeometry width="50" height="50" relative="1" as="geometry">
                        <mxPoint x="300" y="240" as="sourcePoint"/>
                        <mxPoint x="260" y="200" as="targetPoint"/>
                    </mxGeometry>
                </mxCell>
                <mxCell id="NQOJJp5-3qrspzleDrJq-12" value="1" style="ellipse;whiteSpace=wrap;html=1;aspect=fixed;" vertex="1" parent="1">
                    <mxGeometry x="160" y="80" width="40" height="40" as="geometry"/>
                </mxCell>
                <mxCell id="NQOJJp5-3qrspzleDrJq-13" value="C" style="whiteSpace=wrap;html=1;aspect=fixed;" vertex="1" parent="1">
                    <mxGeometry x="200" y="240" width="40" height="40" as="geometry"/>
                </mxCell>
                <mxCell id="NQOJJp5-3qrspzleDrJq-14" value="E" style="whiteSpace=wrap;html=1;aspect=fixed;" vertex="1" parent="1">
                    <mxGeometry x="230" y="20" width="40" height="40" as="geometry"/>
                </mxCell>
                <mxCell id="NQOJJp5-3qrspzleDrJq-15" value="" style="endArrow=classic;html=1;dashed=1;" edge="1" parent="1">
                    <mxGeometry width="50" height="50" relative="1" as="geometry">
                        <mxPoint x="240" y="70" as="sourcePoint"/>
                        <mxPoint x="210" y="100" as="targetPoint"/>
                    </mxGeometry>
                </mxCell>
                <mxCell id="NQOJJp5-3qrspzleDrJq-16" value="2" style="ellipse;whiteSpace=wrap;html=1;aspect=fixed;" vertex="1" parent="1">
                    <mxGeometry x="200" y="480" width="40" height="40" as="geometry"/>
                </mxCell>
                <mxCell id="NQOJJp5-3qrspzleDrJq-17" value="3" style="ellipse;whiteSpace=wrap;html=1;aspect=fixed;" vertex="1" parent="1">
                    <mxGeometry x="360" y="480" width="40" height="40" as="geometry"/>
                </mxCell>
                <mxCell id="NQOJJp5-3qrspzleDrJq-18" value="A" style="whiteSpace=wrap;html=1;aspect=fixed;" vertex="1" parent="1">
                    <mxGeometry x="160" y="560" width="40" height="40" as="geometry"/>
                </mxCell>
                <mxCell id="NQOJJp5-3qrspzleDrJq-19" value="B" style="whiteSpace=wrap;html=1;aspect=fixed;" vertex="1" parent="1">
                    <mxGeometry x="240" y="560" width="40" height="40" as="geometry"/>
                </mxCell>
                <mxCell id="NQOJJp5-3qrspzleDrJq-20" value="D" style="whiteSpace=wrap;html=1;aspect=fixed;" vertex="1" parent="1">
                    <mxGeometry x="400" y="560" width="40" height="40" as="geometry"/>
                </mxCell>
                <mxCell id="NQOJJp5-3qrspzleDrJq-21" value="" style="endArrow=none;html=1;entryX=0.5;entryY=1;entryDx=0;entryDy=0;exitX=0.5;exitY=0;exitDx=0;exitDy=0;" edge="1" parent="1" source="NQOJJp5-3qrspzleDrJq-16">
                    <mxGeometry width="50" height="50" relative="1" as="geometry">
                        <mxPoint x="480" y="750" as="sourcePoint"/>
                        <mxPoint x="300" y="440" as="targetPoint"/>
                    </mxGeometry>
                </mxCell>
                <mxCell id="NQOJJp5-3qrspzleDrJq-22" value="" style="endArrow=none;html=1;entryX=0.5;entryY=1;entryDx=0;entryDy=0;exitX=0.5;exitY=0;exitDx=0;exitDy=0;" edge="1" parent="1" source="NQOJJp5-3qrspzleDrJq-17">
                    <mxGeometry width="50" height="50" relative="1" as="geometry">
                        <mxPoint x="230" y="490" as="sourcePoint"/>
                        <mxPoint x="300" y="440" as="targetPoint"/>
                    </mxGeometry>
                </mxCell>
                <mxCell id="NQOJJp5-3qrspzleDrJq-23" value="" style="endArrow=none;html=1;entryX=0.5;entryY=1;entryDx=0;entryDy=0;exitX=0.5;exitY=0;exitDx=0;exitDy=0;" edge="1" parent="1" source="NQOJJp5-3qrspzleDrJq-18">
                    <mxGeometry width="50" height="50" relative="1" as="geometry">
                        <mxPoint x="140" y="560" as="sourcePoint"/>
                        <mxPoint x="220" y="520" as="targetPoint"/>
                    </mxGeometry>
                </mxCell>
                <mxCell id="NQOJJp5-3qrspzleDrJq-24" value="" style="endArrow=none;html=1;entryX=0.5;entryY=1;entryDx=0;entryDy=0;exitX=0.5;exitY=0;exitDx=0;exitDy=0;" edge="1" parent="1">
                    <mxGeometry width="50" height="50" relative="1" as="geometry">
                        <mxPoint x="340" y="560" as="sourcePoint"/>
                        <mxPoint x="380" y="520" as="targetPoint"/>
                    </mxGeometry>
                </mxCell>
                <mxCell id="NQOJJp5-3qrspzleDrJq-25" value="" style="endArrow=none;html=1;entryX=0.5;entryY=1;entryDx=0;entryDy=0;exitX=0.5;exitY=0;exitDx=0;exitDy=0;" edge="1" parent="1" source="NQOJJp5-3qrspzleDrJq-19" target="NQOJJp5-3qrspzleDrJq-16">
                    <mxGeometry width="50" height="50" relative="1" as="geometry">
                        <mxPoint x="200" y="580" as="sourcePoint"/>
                        <mxPoint x="240" y="540" as="targetPoint"/>
                    </mxGeometry>
                </mxCell>
                <mxCell id="NQOJJp5-3qrspzleDrJq-26" value="" style="endArrow=none;html=1;entryX=0.5;entryY=1;entryDx=0;entryDy=0;exitX=0.5;exitY=0;exitDx=0;exitDy=0;" edge="1" parent="1">
                    <mxGeometry width="50" height="50" relative="1" as="geometry">
                        <mxPoint x="420" y="560" as="sourcePoint"/>
                        <mxPoint x="380" y="520" as="targetPoint"/>
                    </mxGeometry>
                </mxCell>
                <mxCell id="NQOJJp5-3qrspzleDrJq-27" value="1" style="ellipse;whiteSpace=wrap;html=1;aspect=fixed;" vertex="1" parent="1">
                    <mxGeometry x="280" y="400" width="40" height="40" as="geometry"/>
                </mxCell>
                <mxCell id="NQOJJp5-3qrspzleDrJq-28" value="C" style="whiteSpace=wrap;html=1;aspect=fixed;" vertex="1" parent="1">
                    <mxGeometry x="320" y="560" width="40" height="40" as="geometry"/>
                </mxCell>
                <mxCell id="NQOJJp5-3qrspzleDrJq-30" value="" style="endArrow=classic;startArrow=classic;html=1;dashed=1;entryX=0;entryY=0.5;entryDx=0;entryDy=0;exitX=1;exitY=0.5;exitDx=0;exitDy=0;" edge="1" parent="1" source="NQOJJp5-3qrspzleDrJq-16" target="NQOJJp5-3qrspzleDrJq-28">
                    <mxGeometry width="50" height="50" relative="1" as="geometry">
                        <mxPoint x="250" y="510" as="sourcePoint"/>
                        <mxPoint x="490" y="320" as="targetPoint"/>
                    </mxGeometry>
                </mxCell>
                <mxCell id="NQOJJp5-3qrspzleDrJq-31" value="" style="endArrow=classic;startArrow=classic;html=1;dashed=1;entryX=0;entryY=0.5;entryDx=0;entryDy=0;" edge="1" parent="1" target="NQOJJp5-3qrspzleDrJq-20">
                    <mxGeometry width="50" height="50" relative="1" as="geometry">
                        <mxPoint x="240" y="500" as="sourcePoint"/>
                        <mxPoint x="490" y="320" as="targetPoint"/>
                    </mxGeometry>
                </mxCell>
                <mxCell id="NQOJJp5-3qrspzleDrJq-32" value="" style="endArrow=classic;startArrow=classic;html=1;dashed=1;exitX=1;exitY=0.5;exitDx=0;exitDy=0;entryX=0;entryY=0.5;entryDx=0;entryDy=0;" edge="1" parent="1" source="NQOJJp5-3qrspzleDrJq-18" target="NQOJJp5-3qrspzleDrJq-17">
                    <mxGeometry width="50" height="50" relative="1" as="geometry">
                        <mxPoint x="440" y="370" as="sourcePoint"/>
                        <mxPoint x="490" y="320" as="targetPoint"/>
                    </mxGeometry>
                </mxCell>
                <mxCell id="NQOJJp5-3qrspzleDrJq-33" value="" style="endArrow=classic;startArrow=classic;html=1;dashed=1;exitX=1;exitY=0.5;exitDx=0;exitDy=0;entryX=0;entryY=0.5;entryDx=0;entryDy=0;" edge="1" parent="1" source="NQOJJp5-3qrspzleDrJq-19" target="NQOJJp5-3qrspzleDrJq-17">
                    <mxGeometry width="50" height="50" relative="1" as="geometry">
                        <mxPoint x="440" y="370" as="sourcePoint"/>
                        <mxPoint x="490" y="320" as="targetPoint"/>
                    </mxGeometry>
                </mxCell>
                <mxCell id="NQOJJp5-3qrspzleDrJq-34" value="2" style="ellipse;whiteSpace=wrap;html=1;aspect=fixed;" vertex="1" parent="1">
                    <mxGeometry x="120" y="760" width="40" height="40" as="geometry"/>
                </mxCell>
                <mxCell id="NQOJJp5-3qrspzleDrJq-35" value="3" style="ellipse;whiteSpace=wrap;html=1;aspect=fixed;" vertex="1" parent="1">
                    <mxGeometry x="280" y="760" width="40" height="40" as="geometry"/>
                </mxCell>
                <mxCell id="NQOJJp5-3qrspzleDrJq-36" value="A" style="whiteSpace=wrap;html=1;aspect=fixed;" vertex="1" parent="1">
                    <mxGeometry x="80" y="840" width="40" height="40" as="geometry"/>
                </mxCell>
                <mxCell id="NQOJJp5-3qrspzleDrJq-37" value="B" style="whiteSpace=wrap;html=1;aspect=fixed;" vertex="1" parent="1">
                    <mxGeometry x="160" y="840" width="40" height="40" as="geometry"/>
                </mxCell>
                <mxCell id="NQOJJp5-3qrspzleDrJq-38" value="D" style="whiteSpace=wrap;html=1;aspect=fixed;" vertex="1" parent="1">
                    <mxGeometry x="320" y="840" width="40" height="40" as="geometry"/>
                </mxCell>
                <mxCell id="NQOJJp5-3qrspzleDrJq-39" value="" style="endArrow=none;html=1;entryX=0.5;entryY=1;entryDx=0;entryDy=0;exitX=0.5;exitY=0;exitDx=0;exitDy=0;" edge="1" parent="1" source="NQOJJp5-3qrspzleDrJq-34">
                    <mxGeometry width="50" height="50" relative="1" as="geometry">
                        <mxPoint x="400" y="1030" as="sourcePoint"/>
                        <mxPoint x="220" y="720" as="targetPoint"/>
                    </mxGeometry>
                </mxCell>
                <mxCell id="NQOJJp5-3qrspzleDrJq-40" value="" style="endArrow=none;html=1;entryX=0.5;entryY=1;entryDx=0;entryDy=0;exitX=0.5;exitY=0;exitDx=0;exitDy=0;" edge="1" parent="1" source="NQOJJp5-3qrspzleDrJq-35">
                    <mxGeometry width="50" height="50" relative="1" as="geometry">
                        <mxPoint x="150" y="770" as="sourcePoint"/>
                        <mxPoint x="220" y="720" as="targetPoint"/>
                    </mxGeometry>
                </mxCell>
                <mxCell id="NQOJJp5-3qrspzleDrJq-41" value="" style="endArrow=none;html=1;entryX=0.5;entryY=1;entryDx=0;entryDy=0;exitX=0.5;exitY=0;exitDx=0;exitDy=0;" edge="1" parent="1" source="NQOJJp5-3qrspzleDrJq-36">
                    <mxGeometry width="50" height="50" relative="1" as="geometry">
                        <mxPoint x="60" y="840" as="sourcePoint"/>
                        <mxPoint x="140" y="800" as="targetPoint"/>
                    </mxGeometry>
                </mxCell>
                <mxCell id="NQOJJp5-3qrspzleDrJq-42" value="" style="endArrow=none;html=1;entryX=0.5;entryY=1;entryDx=0;entryDy=0;exitX=0.5;exitY=0;exitDx=0;exitDy=0;" edge="1" parent="1">
                    <mxGeometry width="50" height="50" relative="1" as="geometry">
                        <mxPoint x="260" y="840" as="sourcePoint"/>
                        <mxPoint x="300" y="800" as="targetPoint"/>
                    </mxGeometry>
                </mxCell>
                <mxCell id="NQOJJp5-3qrspzleDrJq-43" value="" style="endArrow=none;html=1;entryX=0.5;entryY=1;entryDx=0;entryDy=0;exitX=0.5;exitY=0;exitDx=0;exitDy=0;" edge="1" parent="1" source="NQOJJp5-3qrspzleDrJq-37" target="NQOJJp5-3qrspzleDrJq-34">
                    <mxGeometry width="50" height="50" relative="1" as="geometry">
                        <mxPoint x="120" y="860" as="sourcePoint"/>
                        <mxPoint x="160" y="820" as="targetPoint"/>
                    </mxGeometry>
                </mxCell>
                <mxCell id="NQOJJp5-3qrspzleDrJq-44" value="" style="endArrow=none;html=1;entryX=0.5;entryY=1;entryDx=0;entryDy=0;exitX=0.5;exitY=0;exitDx=0;exitDy=0;" edge="1" parent="1">
                    <mxGeometry width="50" height="50" relative="1" as="geometry">
                        <mxPoint x="340" y="840" as="sourcePoint"/>
                        <mxPoint x="300" y="800" as="targetPoint"/>
                    </mxGeometry>
                </mxCell>
                <mxCell id="NQOJJp5-3qrspzleDrJq-45" value="1" style="ellipse;whiteSpace=wrap;html=1;aspect=fixed;" vertex="1" parent="1">
                    <mxGeometry x="200" y="680" width="40" height="40" as="geometry"/>
                </mxCell>
                <mxCell id="NQOJJp5-3qrspzleDrJq-46" value="C" style="whiteSpace=wrap;html=1;aspect=fixed;" vertex="1" parent="1">
                    <mxGeometry x="240" y="840" width="40" height="40" as="geometry"/>
                </mxCell>
                <mxCell id="NQOJJp5-3qrspzleDrJq-47" value="" style="endArrow=classic;startArrow=classic;html=1;dashed=1;entryX=0;entryY=0.5;entryDx=0;entryDy=0;exitX=1;exitY=0.5;exitDx=0;exitDy=0;" edge="1" parent="1" source="NQOJJp5-3qrspzleDrJq-34" target="NQOJJp5-3qrspzleDrJq-46">
                    <mxGeometry width="50" height="50" relative="1" as="geometry">
                        <mxPoint x="170" y="790" as="sourcePoint"/>
                        <mxPoint x="410" y="600" as="targetPoint"/>
                    </mxGeometry>
                </mxCell>
                <mxCell id="NQOJJp5-3qrspzleDrJq-51" value="2" style="ellipse;whiteSpace=wrap;html=1;aspect=fixed;" vertex="1" parent="1">
                    <mxGeometry x="600" y="840" width="40" height="40" as="geometry"/>
                </mxCell>
                <mxCell id="NQOJJp5-3qrspzleDrJq-52" value="3" style="ellipse;whiteSpace=wrap;html=1;aspect=fixed;" vertex="1" parent="1">
                    <mxGeometry x="640" y="760" width="40" height="40" as="geometry"/>
                </mxCell>
                <mxCell id="NQOJJp5-3qrspzleDrJq-53" value="A" style="whiteSpace=wrap;html=1;aspect=fixed;" vertex="1" parent="1">
                    <mxGeometry x="560" y="920" width="40" height="40" as="geometry"/>
                </mxCell>
                <mxCell id="NQOJJp5-3qrspzleDrJq-54" value="B" style="whiteSpace=wrap;html=1;aspect=fixed;" vertex="1" parent="1">
                    <mxGeometry x="640" y="920" width="40" height="40" as="geometry"/>
                </mxCell>
                <mxCell id="NQOJJp5-3qrspzleDrJq-55" value="D" style="whiteSpace=wrap;html=1;aspect=fixed;" vertex="1" parent="1">
                    <mxGeometry x="680" y="840" width="40" height="40" as="geometry"/>
                </mxCell>
                <mxCell id="NQOJJp5-3qrspzleDrJq-56" value="" style="endArrow=none;html=1;entryX=0.5;entryY=1;entryDx=0;entryDy=0;exitX=0.5;exitY=0;exitDx=0;exitDy=0;" edge="1" parent="1" source="NQOJJp5-3qrspzleDrJq-63">
                    <mxGeometry width="50" height="50" relative="1" as="geometry">
                        <mxPoint x="760" y="1030" as="sourcePoint"/>
                        <mxPoint x="580" y="720" as="targetPoint"/>
                    </mxGeometry>
                </mxCell>
                <mxCell id="NQOJJp5-3qrspzleDrJq-57" value="" style="endArrow=none;html=1;entryX=0.5;entryY=1;entryDx=0;entryDy=0;exitX=0.5;exitY=0;exitDx=0;exitDy=0;" edge="1" parent="1" source="NQOJJp5-3qrspzleDrJq-52">
                    <mxGeometry width="50" height="50" relative="1" as="geometry">
                        <mxPoint x="510" y="770" as="sourcePoint"/>
                        <mxPoint x="580" y="720" as="targetPoint"/>
                    </mxGeometry>
                </mxCell>
                <mxCell id="NQOJJp5-3qrspzleDrJq-58" value="" style="endArrow=none;html=1;entryX=0.5;entryY=1;entryDx=0;entryDy=0;exitX=0.5;exitY=0;exitDx=0;exitDy=0;" edge="1" parent="1" source="NQOJJp5-3qrspzleDrJq-53">
                    <mxGeometry width="50" height="50" relative="1" as="geometry">
                        <mxPoint x="540" y="920" as="sourcePoint"/>
                        <mxPoint x="620" y="880" as="targetPoint"/>
                    </mxGeometry>
                </mxCell>
                <mxCell id="NQOJJp5-3qrspzleDrJq-59" value="" style="endArrow=none;html=1;entryX=0.5;entryY=1;entryDx=0;entryDy=0;exitX=0.5;exitY=0;exitDx=0;exitDy=0;" edge="1" parent="1">
                    <mxGeometry width="50" height="50" relative="1" as="geometry">
                        <mxPoint x="620" y="840" as="sourcePoint"/>
                        <mxPoint x="660" y="800" as="targetPoint"/>
                    </mxGeometry>
                </mxCell>
                <mxCell id="NQOJJp5-3qrspzleDrJq-60" value="" style="endArrow=none;html=1;entryX=0.5;entryY=1;entryDx=0;entryDy=0;exitX=0.5;exitY=0;exitDx=0;exitDy=0;" edge="1" parent="1" source="NQOJJp5-3qrspzleDrJq-54" target="NQOJJp5-3qrspzleDrJq-51">
                    <mxGeometry width="50" height="50" relative="1" as="geometry">
                        <mxPoint x="600" y="940" as="sourcePoint"/>
                        <mxPoint x="640" y="900" as="targetPoint"/>
                    </mxGeometry>
                </mxCell>
                <mxCell id="NQOJJp5-3qrspzleDrJq-61" value="" style="endArrow=none;html=1;entryX=0.5;entryY=1;entryDx=0;entryDy=0;exitX=0.5;exitY=0;exitDx=0;exitDy=0;" edge="1" parent="1">
                    <mxGeometry width="50" height="50" relative="1" as="geometry">
                        <mxPoint x="700" y="840" as="sourcePoint"/>
                        <mxPoint x="660" y="800" as="targetPoint"/>
                    </mxGeometry>
                </mxCell>
                <mxCell id="NQOJJp5-3qrspzleDrJq-62" value="1" style="ellipse;whiteSpace=wrap;html=1;aspect=fixed;" vertex="1" parent="1">
                    <mxGeometry x="560" y="680" width="40" height="40" as="geometry"/>
                </mxCell>
                <mxCell id="NQOJJp5-3qrspzleDrJq-63" value="C" style="whiteSpace=wrap;html=1;aspect=fixed;" vertex="1" parent="1">
                    <mxGeometry x="480" y="760" width="40" height="40" as="geometry"/>
                </mxCell>
                <mxCell id="NQOJJp5-3qrspzleDrJq-65" value="" style="shape=flexArrow;endArrow=classic;html=1;" edge="1" parent="1">
                    <mxGeometry width="50" height="50" relative="1" as="geometry">
                        <mxPoint x="360" y="800" as="sourcePoint"/>
                        <mxPoint x="440" y="800" as="targetPoint"/>
                    </mxGeometry>
                </mxCell>
            </root>
        </mxGraphModel>
    </diagram>
    <diagram id="XpU4kqby3pGlzTG7WXfc" name="Page-4">
        <mxGraphModel dx="927" dy="792" grid="0" gridSize="10" guides="1" tooltips="1" connect="1" arrows="1" fold="1" page="1" pageScale="1" pageWidth="850" pageHeight="1100" math="0" shadow="0">
            <root>
                <mxCell id="0"/>
                <mxCell id="1" parent="0"/>
                <mxCell id="9FiXWQxXUW9gMIdr4jWD-3" value="A" style="triangle;whiteSpace=wrap;html=1;" parent="1" vertex="1">
                    <mxGeometry x="10" y="120" width="60" height="80" as="geometry"/>
                </mxCell>
                <mxCell id="9FiXWQxXUW9gMIdr4jWD-4" value="B" style="rhombus;whiteSpace=wrap;html=1;" parent="1" vertex="1">
                    <mxGeometry x="90" y="160" width="80" height="80" as="geometry"/>
                </mxCell>
                <mxCell id="9FiXWQxXUW9gMIdr4jWD-5" value="C" style="ellipse;whiteSpace=wrap;html=1;aspect=fixed;" parent="1" vertex="1">
                    <mxGeometry x="210" y="200" width="80" height="80" as="geometry"/>
                </mxCell>
                <mxCell id="9FiXWQxXUW9gMIdr4jWD-6" value="D" style="shape=parallelogram;perimeter=parallelogramPerimeter;whiteSpace=wrap;html=1;fixedSize=1;" parent="1" vertex="1">
                    <mxGeometry x="330" y="100" width="120" height="60" as="geometry"/>
                </mxCell>
                <mxCell id="9FiXWQxXUW9gMIdr4jWD-10" value="" style="rounded=0;whiteSpace=wrap;html=1;dashed=1;strokeColor=#CC0000;fillColor=none;" parent="1" vertex="1">
                    <mxGeometry x="10" y="120" width="160" height="120" as="geometry"/>
                </mxCell>
                <mxCell id="9FiXWQxXUW9gMIdr4jWD-11" value="" style="rounded=0;whiteSpace=wrap;html=1;dashed=1;strokeColor=#FF8000;fillColor=none;" parent="1" vertex="1">
                    <mxGeometry x="10" y="120" width="280" height="160" as="geometry"/>
                </mxCell>
                <mxCell id="9FiXWQxXUW9gMIdr4jWD-12" value="" style="rounded=0;whiteSpace=wrap;html=1;dashed=1;strokeColor=#FFFF00;fillColor=none;" parent="1" vertex="1">
                    <mxGeometry x="10" y="100" width="440" height="180" as="geometry"/>
                </mxCell>
                <mxCell id="9FiXWQxXUW9gMIdr4jWD-13" value="A" style="triangle;whiteSpace=wrap;html=1;" parent="1" vertex="1">
                    <mxGeometry x="10" y="450" width="60" height="80" as="geometry"/>
                </mxCell>
                <mxCell id="9FiXWQxXUW9gMIdr4jWD-14" value="B" style="rhombus;whiteSpace=wrap;html=1;" parent="1" vertex="1">
                    <mxGeometry x="90" y="490" width="80" height="80" as="geometry"/>
                </mxCell>
                <mxCell id="9FiXWQxXUW9gMIdr4jWD-15" value="C" style="ellipse;whiteSpace=wrap;html=1;aspect=fixed;" parent="1" vertex="1">
                    <mxGeometry x="210" y="530" width="80" height="80" as="geometry"/>
                </mxCell>
                <mxCell id="9FiXWQxXUW9gMIdr4jWD-16" value="D" style="shape=parallelogram;perimeter=parallelogramPerimeter;whiteSpace=wrap;html=1;fixedSize=1;" parent="1" vertex="1">
                    <mxGeometry x="330" y="430" width="120" height="60" as="geometry"/>
                </mxCell>
                <mxCell id="9FiXWQxXUW9gMIdr4jWD-17" value="" style="rounded=0;whiteSpace=wrap;html=1;dashed=1;strokeColor=#CC0000;fillColor=none;" parent="1" vertex="1">
                    <mxGeometry x="10" y="450" width="160" height="120" as="geometry"/>
                </mxCell>
                <mxCell id="9FiXWQxXUW9gMIdr4jWD-18" value="" style="rounded=0;whiteSpace=wrap;html=1;dashed=1;strokeColor=#FF8000;fillColor=none;" parent="1" vertex="1">
                    <mxGeometry x="210" y="430" width="240" height="180" as="geometry"/>
                </mxCell>
                <mxCell id="9FiXWQxXUW9gMIdr4jWD-20" value="1" style="ellipse;whiteSpace=wrap;html=1;aspect=fixed;strokeColor=#FFFFFF;fillColor=none;" parent="1" vertex="1">
                    <mxGeometry x="600" y="80" width="40" height="40" as="geometry"/>
                </mxCell>
                <mxCell id="9FiXWQxXUW9gMIdr4jWD-21" value="2" style="ellipse;whiteSpace=wrap;html=1;aspect=fixed;strokeColor=#FFFFFF;fillColor=none;" parent="1" vertex="1">
                    <mxGeometry x="640" y="140" width="40" height="40" as="geometry"/>
                </mxCell>
                <mxCell id="9FiXWQxXUW9gMIdr4jWD-23" value="3" style="ellipse;whiteSpace=wrap;html=1;aspect=fixed;strokeColor=#FFFFFF;fillColor=none;" parent="1" vertex="1">
                    <mxGeometry x="680" y="200" width="40" height="40" as="geometry"/>
                </mxCell>
                <mxCell id="9FiXWQxXUW9gMIdr4jWD-24" value="A" style="whiteSpace=wrap;html=1;aspect=fixed;strokeColor=#FFFFFF;fillColor=none;" parent="1" vertex="1">
                    <mxGeometry x="560" y="140" width="40" height="40" as="geometry"/>
                </mxCell>
                <mxCell id="9FiXWQxXUW9gMIdr4jWD-25" value="B" style="whiteSpace=wrap;html=1;aspect=fixed;strokeColor=#FFFFFF;fillColor=none;" parent="1" vertex="1">
                    <mxGeometry x="600" y="200" width="40" height="40" as="geometry"/>
                </mxCell>
                <mxCell id="9FiXWQxXUW9gMIdr4jWD-26" value="C" style="whiteSpace=wrap;html=1;aspect=fixed;strokeColor=#FFFFFF;fillColor=none;" parent="1" vertex="1">
                    <mxGeometry x="640" y="260" width="40" height="40" as="geometry"/>
                </mxCell>
                <mxCell id="9FiXWQxXUW9gMIdr4jWD-28" value="D" style="whiteSpace=wrap;html=1;aspect=fixed;strokeColor=#FFFFFF;fillColor=none;" parent="1" vertex="1">
                    <mxGeometry x="720" y="260" width="40" height="40" as="geometry"/>
                </mxCell>
                <mxCell id="9FiXWQxXUW9gMIdr4jWD-29" value="" style="endArrow=none;html=1;entryX=0.5;entryY=1;entryDx=0;entryDy=0;exitX=0.5;exitY=0;exitDx=0;exitDy=0;" parent="1" source="9FiXWQxXUW9gMIdr4jWD-24" target="9FiXWQxXUW9gMIdr4jWD-20" edge="1">
                    <mxGeometry width="50" height="50" relative="1" as="geometry">
                        <mxPoint x="330" y="430" as="sourcePoint"/>
                        <mxPoint x="380" y="380" as="targetPoint"/>
                    </mxGeometry>
                </mxCell>
                <mxCell id="9FiXWQxXUW9gMIdr4jWD-30" value="" style="endArrow=none;html=1;entryX=0.5;entryY=1;entryDx=0;entryDy=0;exitX=0.5;exitY=0;exitDx=0;exitDy=0;" parent="1" edge="1">
                    <mxGeometry width="50" height="50" relative="1" as="geometry">
                        <mxPoint x="620" y="200" as="sourcePoint"/>
                        <mxPoint x="660" y="180" as="targetPoint"/>
                    </mxGeometry>
                </mxCell>
                <mxCell id="9FiXWQxXUW9gMIdr4jWD-31" value="" style="endArrow=none;html=1;entryX=0.5;entryY=1;entryDx=0;entryDy=0;exitX=0.5;exitY=0;exitDx=0;exitDy=0;" parent="1" edge="1">
                    <mxGeometry width="50" height="50" relative="1" as="geometry">
                        <mxPoint x="660" y="260" as="sourcePoint"/>
                        <mxPoint x="700" y="240" as="targetPoint"/>
                    </mxGeometry>
                </mxCell>
                <mxCell id="9FiXWQxXUW9gMIdr4jWD-32" value="" style="endArrow=none;html=1;entryX=0.5;entryY=1;entryDx=0;entryDy=0;exitX=0.5;exitY=0;exitDx=0;exitDy=0;" parent="1" source="9FiXWQxXUW9gMIdr4jWD-21" target="9FiXWQxXUW9gMIdr4jWD-20" edge="1">
                    <mxGeometry width="50" height="50" relative="1" as="geometry">
                        <mxPoint x="640" y="220" as="sourcePoint"/>
                        <mxPoint x="680" y="200" as="targetPoint"/>
                    </mxGeometry>
                </mxCell>
                <mxCell id="9FiXWQxXUW9gMIdr4jWD-33" value="" style="endArrow=none;html=1;entryX=0.5;entryY=1;entryDx=0;entryDy=0;exitX=0.5;exitY=0;exitDx=0;exitDy=0;" parent="1" edge="1">
                    <mxGeometry width="50" height="50" relative="1" as="geometry">
                        <mxPoint x="700" y="200" as="sourcePoint"/>
                        <mxPoint x="660" y="180" as="targetPoint"/>
                    </mxGeometry>
                </mxCell>
                <mxCell id="9FiXWQxXUW9gMIdr4jWD-34" value="" style="endArrow=none;html=1;entryX=0.5;entryY=1;entryDx=0;entryDy=0;exitX=0.5;exitY=0;exitDx=0;exitDy=0;" parent="1" edge="1">
                    <mxGeometry width="50" height="50" relative="1" as="geometry">
                        <mxPoint x="740" y="260" as="sourcePoint"/>
                        <mxPoint x="700" y="240" as="targetPoint"/>
                    </mxGeometry>
                </mxCell>
                <mxCell id="sG6QTN-voNtJcNggeIHD-1" value="" style="rounded=0;whiteSpace=wrap;html=1;dashed=1;strokeColor=#FFFF00;fillColor=none;" parent="1" vertex="1">
                    <mxGeometry x="10" y="430" width="440" height="180" as="geometry"/>
                </mxCell>
                <mxCell id="sG6QTN-voNtJcNggeIHD-2" value="1" style="ellipse;whiteSpace=wrap;html=1;aspect=fixed;strokeColor=#FFFFFF;fillColor=none;" parent="1" vertex="1">
                    <mxGeometry x="600" y="430" width="40" height="40" as="geometry"/>
                </mxCell>
                <mxCell id="sG6QTN-voNtJcNggeIHD-3" value="2" style="ellipse;whiteSpace=wrap;html=1;aspect=fixed;strokeColor=#FFFFFF;fillColor=none;" parent="1" vertex="1">
                    <mxGeometry x="670" y="490" width="40" height="40" as="geometry"/>
                </mxCell>
                <mxCell id="sG6QTN-voNtJcNggeIHD-4" value="3" style="ellipse;whiteSpace=wrap;html=1;aspect=fixed;strokeColor=#FFFFFF;fillColor=none;" parent="1" vertex="1">
                    <mxGeometry x="530" y="490" width="40" height="40" as="geometry"/>
                </mxCell>
                <mxCell id="sG6QTN-voNtJcNggeIHD-5" value="A" style="whiteSpace=wrap;html=1;aspect=fixed;strokeColor=#FFFFFF;fillColor=none;" parent="1" vertex="1">
                    <mxGeometry x="710" y="550" width="40" height="40" as="geometry"/>
                </mxCell>
                <mxCell id="sG6QTN-voNtJcNggeIHD-6" value="B" style="whiteSpace=wrap;html=1;aspect=fixed;strokeColor=#FFFFFF;fillColor=none;" parent="1" vertex="1">
                    <mxGeometry x="630" y="550" width="40" height="40" as="geometry"/>
                </mxCell>
                <mxCell id="sG6QTN-voNtJcNggeIHD-7" value="C" style="whiteSpace=wrap;html=1;aspect=fixed;strokeColor=#FFFFFF;fillColor=none;" parent="1" vertex="1">
                    <mxGeometry x="490" y="550" width="40" height="40" as="geometry"/>
                </mxCell>
                <mxCell id="sG6QTN-voNtJcNggeIHD-8" value="D" style="whiteSpace=wrap;html=1;aspect=fixed;strokeColor=#FFFFFF;fillColor=none;" parent="1" vertex="1">
                    <mxGeometry x="570" y="550" width="40" height="40" as="geometry"/>
                </mxCell>
                <mxCell id="sG6QTN-voNtJcNggeIHD-9" value="" style="endArrow=none;html=1;entryX=0.5;entryY=1;entryDx=0;entryDy=0;exitX=0.5;exitY=0;exitDx=0;exitDy=0;" parent="1" source="sG6QTN-voNtJcNggeIHD-4" target="sG6QTN-voNtJcNggeIHD-2" edge="1">
                    <mxGeometry width="50" height="50" relative="1" as="geometry">
                        <mxPoint x="330" y="780" as="sourcePoint"/>
                        <mxPoint x="380" y="730" as="targetPoint"/>
                    </mxGeometry>
                </mxCell>
                <mxCell id="sG6QTN-voNtJcNggeIHD-10" value="" style="endArrow=none;html=1;entryX=0.5;entryY=1;entryDx=0;entryDy=0;exitX=0.5;exitY=0;exitDx=0;exitDy=0;" parent="1" edge="1">
                    <mxGeometry width="50" height="50" relative="1" as="geometry">
                        <mxPoint x="650" y="550" as="sourcePoint"/>
                        <mxPoint x="690" y="530" as="targetPoint"/>
                    </mxGeometry>
                </mxCell>
                <mxCell id="sG6QTN-voNtJcNggeIHD-11" value="" style="endArrow=none;html=1;entryX=0.5;entryY=1;entryDx=0;entryDy=0;exitX=0.5;exitY=0;exitDx=0;exitDy=0;" parent="1" edge="1">
                    <mxGeometry width="50" height="50" relative="1" as="geometry">
                        <mxPoint x="510" y="550" as="sourcePoint"/>
                        <mxPoint x="550" y="530" as="targetPoint"/>
                    </mxGeometry>
                </mxCell>
                <mxCell id="sG6QTN-voNtJcNggeIHD-12" value="" style="endArrow=none;html=1;entryX=0.5;entryY=1;entryDx=0;entryDy=0;exitX=0.5;exitY=0;exitDx=0;exitDy=0;" parent="1" source="sG6QTN-voNtJcNggeIHD-3" target="sG6QTN-voNtJcNggeIHD-2" edge="1">
                    <mxGeometry width="50" height="50" relative="1" as="geometry">
                        <mxPoint x="640" y="570" as="sourcePoint"/>
                        <mxPoint x="680" y="550" as="targetPoint"/>
                    </mxGeometry>
                </mxCell>
                <mxCell id="sG6QTN-voNtJcNggeIHD-13" value="" style="endArrow=none;html=1;entryX=0.5;entryY=1;entryDx=0;entryDy=0;exitX=0.5;exitY=0;exitDx=0;exitDy=0;" parent="1" edge="1">
                    <mxGeometry width="50" height="50" relative="1" as="geometry">
                        <mxPoint x="730" y="550" as="sourcePoint"/>
                        <mxPoint x="690" y="530" as="targetPoint"/>
                    </mxGeometry>
                </mxCell>
                <mxCell id="sG6QTN-voNtJcNggeIHD-14" value="" style="endArrow=none;html=1;entryX=0.5;entryY=1;entryDx=0;entryDy=0;exitX=0.5;exitY=0;exitDx=0;exitDy=0;" parent="1" edge="1">
                    <mxGeometry width="50" height="50" relative="1" as="geometry">
                        <mxPoint x="590" y="550" as="sourcePoint"/>
                        <mxPoint x="550" y="530" as="targetPoint"/>
                    </mxGeometry>
                </mxCell>
            </root>
        </mxGraphModel>
    </diagram>
    <diagram id="MNwJx9Ta6PWEG7wxQr73" name="Page-5">
        <mxGraphModel grid="0" page="0" gridSize="10" guides="1" tooltips="1" connect="1" arrows="1" fold="1" pageScale="1" pageWidth="850" pageHeight="1100" math="0" shadow="0">
            <root>
                <mxCell id="0"/>
                <mxCell id="1" parent="0"/>
                <mxCell id="QHPVyKlQaQrpY1hnG4tH-21" value="" style="rounded=0;whiteSpace=wrap;html=1;dashed=1;fillColor=none;strokeColor=#FFFF00;" vertex="1" parent="1">
                    <mxGeometry x="180" y="670" width="160" height="160" as="geometry"/>
                </mxCell>
                <mxCell id="QHPVyKlQaQrpY1hnG4tH-26" value="" style="rounded=0;whiteSpace=wrap;html=1;dashed=1;fillColor=none;strokeColor=#FF8000;" vertex="1" parent="1">
                    <mxGeometry x="180" y="590" width="200" height="240" as="geometry"/>
                </mxCell>
                <mxCell id="QHPVyKlQaQrpY1hnG4tH-16" value="" style="rounded=0;whiteSpace=wrap;html=1;fillColor=none;dashed=1;" vertex="1" parent="1">
                    <mxGeometry x="360" y="360" width="80" height="80" as="geometry"/>
                </mxCell>
                <mxCell id="QHPVyKlQaQrpY1hnG4tH-25" value="" style="rounded=0;whiteSpace=wrap;html=1;dashed=1;fillColor=none;strokeColor=#FFFF00;" vertex="1" parent="1">
                    <mxGeometry x="360" y="300" width="110" height="140" as="geometry"/>
                </mxCell>
                <mxCell id="QHPVyKlQaQrpY1hnG4tH-24" value="" style="rounded=0;whiteSpace=wrap;html=1;dashed=1;fillColor=none;strokeColor=#FFFF00;" vertex="1" parent="1">
                    <mxGeometry x="220" y="160" width="100" height="130" as="geometry"/>
                </mxCell>
                <mxCell id="QHPVyKlQaQrpY1hnG4tH-1" value="B" style="ellipse;whiteSpace=wrap;html=1;aspect=fixed;" vertex="1" parent="1">
                    <mxGeometry x="140" y="160" width="40" height="40" as="geometry"/>
                </mxCell>
                <mxCell id="QHPVyKlQaQrpY1hnG4tH-3" value="A" style="triangle;whiteSpace=wrap;html=1;" vertex="1" parent="1">
                    <mxGeometry x="100" y="180" width="60" height="80" as="geometry"/>
                </mxCell>
                <mxCell id="QHPVyKlQaQrpY1hnG4tH-11" value="" style="rounded=0;whiteSpace=wrap;html=1;fillColor=none;dashed=1;" vertex="1" parent="1">
                    <mxGeometry x="140" y="160" width="40" height="40" as="geometry"/>
                </mxCell>
                <mxCell id="QHPVyKlQaQrpY1hnG4tH-14" value="" style="rounded=0;whiteSpace=wrap;html=1;fillColor=none;dashed=1;" vertex="1" parent="1">
                    <mxGeometry x="100" y="180" width="60" height="80" as="geometry"/>
                </mxCell>
                <mxCell id="QHPVyKlQaQrpY1hnG4tH-20" value="" style="rounded=0;whiteSpace=wrap;html=1;dashed=1;fillColor=none;strokeColor=#FFFF00;" vertex="1" parent="1">
                    <mxGeometry x="100" y="160" width="80" height="100" as="geometry"/>
                </mxCell>
                <mxCell id="QHPVyKlQaQrpY1hnG4tH-27" value="" style="rounded=0;whiteSpace=wrap;html=1;dashed=1;fillColor=none;strokeColor=#FF8000;" vertex="1" parent="1">
                    <mxGeometry x="100" y="160" width="220" height="130" as="geometry"/>
                </mxCell>
                <mxCell id="QHPVyKlQaQrpY1hnG4tH-28" value="" style="rounded=0;whiteSpace=wrap;html=1;dashed=1;strokeColor=#0066CC;fillColor=none;" vertex="1" parent="1">
                    <mxGeometry x="100" y="160" width="370" height="280" as="geometry"/>
                </mxCell>
                <mxCell id="QHPVyKlQaQrpY1hnG4tH-29" value="" style="rounded=0;whiteSpace=wrap;html=1;dashed=1;strokeColor=#CC0000;fillColor=none;" vertex="1" parent="1">
                    <mxGeometry x="100" y="160" width="370" height="670" as="geometry"/>
                </mxCell>
                <mxCell id="QHPVyKlQaQrpY1hnG4tH-2" value="" style="ellipse;whiteSpace=wrap;html=1;aspect=fixed;" vertex="1" parent="1">
                    <mxGeometry x="220" y="160" width="40" height="40" as="geometry"/>
                </mxCell>
                <mxCell id="QHPVyKlQaQrpY1hnG4tH-4" value="" style="ellipse;whiteSpace=wrap;html=1;aspect=fixed;" vertex="1" parent="1">
                    <mxGeometry x="240" y="210" width="80" height="80" as="geometry"/>
                </mxCell>
                <mxCell id="QHPVyKlQaQrpY1hnG4tH-5" value="F" style="ellipse;whiteSpace=wrap;html=1;aspect=fixed;" vertex="1" parent="1">
                    <mxGeometry x="360" y="360" width="80" height="80" as="geometry"/>
                </mxCell>
                <mxCell id="QHPVyKlQaQrpY1hnG4tH-6" value="" style="ellipse;whiteSpace=wrap;html=1;aspect=fixed;" vertex="1" parent="1">
                    <mxGeometry x="300" y="590" width="80" height="80" as="geometry"/>
                </mxCell>
                <mxCell id="QHPVyKlQaQrpY1hnG4tH-8" value="" style="triangle;whiteSpace=wrap;html=1;" vertex="1" parent="1">
                    <mxGeometry x="180" y="670" width="140" height="150" as="geometry"/>
                </mxCell>
                <mxCell id="QHPVyKlQaQrpY1hnG4tH-9" value="" style="ellipse;whiteSpace=wrap;html=1;aspect=fixed;" vertex="1" parent="1">
                    <mxGeometry x="300" y="790" width="40" height="40" as="geometry"/>
                </mxCell>
                <mxCell id="QHPVyKlQaQrpY1hnG4tH-10" value="" style="endArrow=classic;html=1;" edge="1" parent="1">
                    <mxGeometry width="50" height="50" relative="1" as="geometry">
                        <mxPoint x="40" y="720" as="sourcePoint"/>
                        <mxPoint x="504" y="531" as="targetPoint"/>
                    </mxGeometry>
                </mxCell>
                <mxCell id="QHPVyKlQaQrpY1hnG4tH-12" value="C" style="rounded=0;whiteSpace=wrap;html=1;fillColor=none;dashed=1;" vertex="1" parent="1">
                    <mxGeometry x="220" y="160" width="40" height="40" as="geometry"/>
                </mxCell>
                <mxCell id="QHPVyKlQaQrpY1hnG4tH-13" value="I" style="rounded=0;whiteSpace=wrap;html=1;fillColor=none;dashed=1;" vertex="1" parent="1">
                    <mxGeometry x="300" y="790" width="40" height="40" as="geometry"/>
                </mxCell>
                <mxCell id="QHPVyKlQaQrpY1hnG4tH-15" value="D" style="rounded=0;whiteSpace=wrap;html=1;fillColor=none;dashed=1;" vertex="1" parent="1">
                    <mxGeometry x="240" y="210" width="80" height="80" as="geometry"/>
                </mxCell>
                <mxCell id="QHPVyKlQaQrpY1hnG4tH-17" value="G" style="rounded=0;whiteSpace=wrap;html=1;fillColor=none;dashed=1;" vertex="1" parent="1">
                    <mxGeometry x="300" y="590" width="80" height="80" as="geometry"/>
                </mxCell>
                <mxCell id="QHPVyKlQaQrpY1hnG4tH-19" value="H" style="rounded=0;whiteSpace=wrap;html=1;fillColor=none;dashed=1;" vertex="1" parent="1">
                    <mxGeometry x="180" y="670" width="140" height="150" as="geometry"/>
                </mxCell>
                <mxCell id="QHPVyKlQaQrpY1hnG4tH-22" value="" style="triangle;whiteSpace=wrap;html=1;dashed=1;strokeColor=#FFFF00;fillColor=none;" vertex="1" parent="1">
                    <mxGeometry x="410" y="300" width="60" height="80" as="geometry"/>
                </mxCell>
                <mxCell id="QHPVyKlQaQrpY1hnG4tH-23" value="E" style="rounded=0;whiteSpace=wrap;html=1;fillColor=none;dashed=1;" vertex="1" parent="1">
                    <mxGeometry x="410" y="300" width="60" height="80" as="geometry"/>
                </mxCell>
                <mxCell id="QHPVyKlQaQrpY1hnG4tH-39" value="1" style="ellipse;whiteSpace=wrap;html=1;aspect=fixed;strokeColor=#CC0000;fillColor=none;" vertex="1" parent="1">
                    <mxGeometry x="970" y="240" width="40" height="40" as="geometry"/>
                </mxCell>
                <mxCell id="QHPVyKlQaQrpY1hnG4tH-40" value="2" style="ellipse;whiteSpace=wrap;html=1;aspect=fixed;strokeColor=#FFFFFF;fillColor=none;" vertex="1" parent="1">
                    <mxGeometry x="810" y="320" width="40" height="40" as="geometry"/>
                </mxCell>
                <mxCell id="QHPVyKlQaQrpY1hnG4tH-42" value="4" style="ellipse;whiteSpace=wrap;html=1;aspect=fixed;strokeColor=#FFFFFF;fillColor=none;" vertex="1" parent="1">
                    <mxGeometry x="690" y="400" width="40" height="40" as="geometry"/>
                </mxCell>
                <mxCell id="QHPVyKlQaQrpY1hnG4tH-43" value="5" style="ellipse;whiteSpace=wrap;html=1;aspect=fixed;strokeColor=#FFFFFF;fillColor=none;" vertex="1" parent="1">
                    <mxGeometry x="930" y="400" width="40" height="40" as="geometry"/>
                </mxCell>
                <mxCell id="QHPVyKlQaQrpY1hnG4tH-44" value="7" style="ellipse;whiteSpace=wrap;html=1;aspect=fixed;strokeColor=#FFFFFF;fillColor=none;" vertex="1" parent="1">
                    <mxGeometry x="610" y="480" width="40" height="40" as="geometry"/>
                </mxCell>
                <mxCell id="QHPVyKlQaQrpY1hnG4tH-45" value="A" style="whiteSpace=wrap;html=1;aspect=fixed;strokeColor=#FFFFFF;fillColor=none;" vertex="1" parent="1">
                    <mxGeometry x="570" y="560" width="40" height="40" as="geometry"/>
                </mxCell>
                <mxCell id="QHPVyKlQaQrpY1hnG4tH-46" value="B" style="whiteSpace=wrap;html=1;aspect=fixed;strokeColor=#FFFFFF;fillColor=none;" vertex="1" parent="1">
                    <mxGeometry x="650" y="560" width="40" height="40" as="geometry"/>
                </mxCell>
                <mxCell id="QHPVyKlQaQrpY1hnG4tH-47" value="" style="endArrow=none;html=1;exitX=0.5;exitY=0;exitDx=0;exitDy=0;entryX=0.5;entryY=1;entryDx=0;entryDy=0;" edge="1" parent="1" source="QHPVyKlQaQrpY1hnG4tH-45" target="QHPVyKlQaQrpY1hnG4tH-44">
                    <mxGeometry width="50" height="50" relative="1" as="geometry">
                        <mxPoint x="550" y="510" as="sourcePoint"/>
                        <mxPoint x="600" y="460" as="targetPoint"/>
                    </mxGeometry>
                </mxCell>
                <mxCell id="QHPVyKlQaQrpY1hnG4tH-48" value="" style="endArrow=none;html=1;exitX=0.5;exitY=0;exitDx=0;exitDy=0;entryX=0.5;entryY=1;entryDx=0;entryDy=0;" edge="1" parent="1" source="QHPVyKlQaQrpY1hnG4tH-46" target="QHPVyKlQaQrpY1hnG4tH-44">
                    <mxGeometry width="50" height="50" relative="1" as="geometry">
                        <mxPoint x="600" y="570" as="sourcePoint"/>
                        <mxPoint x="640" y="530" as="targetPoint"/>
                    </mxGeometry>
                </mxCell>
                <mxCell id="QHPVyKlQaQrpY1hnG4tH-49" value="C" style="whiteSpace=wrap;html=1;aspect=fixed;strokeColor=#FFFFFF;fillColor=none;" vertex="1" parent="1">
                    <mxGeometry x="730" y="560" width="40" height="40" as="geometry"/>
                </mxCell>
                <mxCell id="QHPVyKlQaQrpY1hnG4tH-50" value="D" style="whiteSpace=wrap;html=1;aspect=fixed;strokeColor=#FFFFFF;fillColor=none;" vertex="1" parent="1">
                    <mxGeometry x="810" y="560" width="40" height="40" as="geometry"/>
                </mxCell>
                <mxCell id="QHPVyKlQaQrpY1hnG4tH-51" value="8" style="ellipse;whiteSpace=wrap;html=1;aspect=fixed;strokeColor=#FFFFFF;fillColor=none;" vertex="1" parent="1">
                    <mxGeometry x="770" y="480" width="40" height="40" as="geometry"/>
                </mxCell>
                <mxCell id="QHPVyKlQaQrpY1hnG4tH-52" value="" style="endArrow=none;html=1;exitX=0.5;exitY=0;exitDx=0;exitDy=0;entryX=0.5;entryY=1;entryDx=0;entryDy=0;" edge="1" parent="1">
                    <mxGeometry width="50" height="50" relative="1" as="geometry">
                        <mxPoint x="750" y="560" as="sourcePoint"/>
                        <mxPoint x="790" y="520" as="targetPoint"/>
                    </mxGeometry>
                </mxCell>
                <mxCell id="QHPVyKlQaQrpY1hnG4tH-53" value="" style="endArrow=none;html=1;exitX=0.5;exitY=0;exitDx=0;exitDy=0;entryX=0.5;entryY=1;entryDx=0;entryDy=0;" edge="1" parent="1">
                    <mxGeometry width="50" height="50" relative="1" as="geometry">
                        <mxPoint x="830" y="560" as="sourcePoint"/>
                        <mxPoint x="790" y="520" as="targetPoint"/>
                    </mxGeometry>
                </mxCell>
                <mxCell id="QHPVyKlQaQrpY1hnG4tH-54" value="" style="endArrow=none;html=1;entryX=0.5;entryY=1;entryDx=0;entryDy=0;exitX=0.5;exitY=0;exitDx=0;exitDy=0;" edge="1" parent="1" source="QHPVyKlQaQrpY1hnG4tH-44" target="QHPVyKlQaQrpY1hnG4tH-42">
                    <mxGeometry width="50" height="50" relative="1" as="geometry">
                        <mxPoint x="550" y="510" as="sourcePoint"/>
                        <mxPoint x="600" y="460" as="targetPoint"/>
                    </mxGeometry>
                </mxCell>
                <mxCell id="QHPVyKlQaQrpY1hnG4tH-55" value="" style="endArrow=none;html=1;entryX=0.5;entryY=1;entryDx=0;entryDy=0;exitX=0.5;exitY=0;exitDx=0;exitDy=0;" edge="1" parent="1" source="QHPVyKlQaQrpY1hnG4tH-51" target="QHPVyKlQaQrpY1hnG4tH-42">
                    <mxGeometry width="50" height="50" relative="1" as="geometry">
                        <mxPoint x="640" y="490" as="sourcePoint"/>
                        <mxPoint x="720" y="450" as="targetPoint"/>
                    </mxGeometry>
                </mxCell>
                <mxCell id="QHPVyKlQaQrpY1hnG4tH-56" value="E" style="whiteSpace=wrap;html=1;aspect=fixed;strokeColor=#FFFFFF;fillColor=none;" vertex="1" parent="1">
                    <mxGeometry x="890" y="480" width="40" height="40" as="geometry"/>
                </mxCell>
                <mxCell id="QHPVyKlQaQrpY1hnG4tH-57" value="F" style="whiteSpace=wrap;html=1;aspect=fixed;strokeColor=#FFFFFF;fillColor=none;" vertex="1" parent="1">
                    <mxGeometry x="970" y="480" width="40" height="40" as="geometry"/>
                </mxCell>
                <mxCell id="QHPVyKlQaQrpY1hnG4tH-58" value="" style="endArrow=none;html=1;exitX=0.5;exitY=0;exitDx=0;exitDy=0;entryX=0.5;entryY=1;entryDx=0;entryDy=0;" edge="1" parent="1">
                    <mxGeometry width="50" height="50" relative="1" as="geometry">
                        <mxPoint x="910" y="480" as="sourcePoint"/>
                        <mxPoint x="950" y="440" as="targetPoint"/>
                    </mxGeometry>
                </mxCell>
                <mxCell id="QHPVyKlQaQrpY1hnG4tH-59" value="" style="endArrow=none;html=1;exitX=0.5;exitY=0;exitDx=0;exitDy=0;entryX=0.5;entryY=1;entryDx=0;entryDy=0;" edge="1" parent="1">
                    <mxGeometry width="50" height="50" relative="1" as="geometry">
                        <mxPoint x="990" y="480" as="sourcePoint"/>
                        <mxPoint x="950" y="440" as="targetPoint"/>
                    </mxGeometry>
                </mxCell>
                <mxCell id="QHPVyKlQaQrpY1hnG4tH-60" value="6" style="ellipse;whiteSpace=wrap;html=1;aspect=fixed;strokeColor=#FFFFFF;fillColor=none;" vertex="1" parent="1">
                    <mxGeometry x="1210" y="400" width="40" height="40" as="geometry"/>
                </mxCell>
                <mxCell id="QHPVyKlQaQrpY1hnG4tH-61" value="H" style="whiteSpace=wrap;html=1;aspect=fixed;strokeColor=#FFFFFF;fillColor=none;" vertex="1" parent="1">
                    <mxGeometry x="1170" y="480" width="40" height="40" as="geometry"/>
                </mxCell>
                <mxCell id="QHPVyKlQaQrpY1hnG4tH-62" value="I" style="whiteSpace=wrap;html=1;aspect=fixed;strokeColor=#FFFFFF;fillColor=none;" vertex="1" parent="1">
                    <mxGeometry x="1250" y="480" width="40" height="40" as="geometry"/>
                </mxCell>
                <mxCell id="QHPVyKlQaQrpY1hnG4tH-63" value="" style="endArrow=none;html=1;exitX=0.5;exitY=0;exitDx=0;exitDy=0;entryX=0.5;entryY=1;entryDx=0;entryDy=0;" edge="1" parent="1">
                    <mxGeometry width="50" height="50" relative="1" as="geometry">
                        <mxPoint x="1190" y="480" as="sourcePoint"/>
                        <mxPoint x="1230" y="440" as="targetPoint"/>
                    </mxGeometry>
                </mxCell>
                <mxCell id="QHPVyKlQaQrpY1hnG4tH-64" value="" style="endArrow=none;html=1;exitX=0.5;exitY=0;exitDx=0;exitDy=0;entryX=0.5;entryY=1;entryDx=0;entryDy=0;" edge="1" parent="1">
                    <mxGeometry width="50" height="50" relative="1" as="geometry">
                        <mxPoint x="1270" y="480" as="sourcePoint"/>
                        <mxPoint x="1230" y="440" as="targetPoint"/>
                    </mxGeometry>
                </mxCell>
                <mxCell id="QHPVyKlQaQrpY1hnG4tH-65" value="G" style="whiteSpace=wrap;html=1;aspect=fixed;strokeColor=#CC0000;fillColor=none;" vertex="1" parent="1">
                    <mxGeometry x="1050" y="400" width="40" height="40" as="geometry"/>
                </mxCell>
                <mxCell id="QHPVyKlQaQrpY1hnG4tH-66" value="3" style="ellipse;whiteSpace=wrap;html=1;aspect=fixed;strokeColor=#CC0000;fillColor=none;" vertex="1" parent="1">
                    <mxGeometry x="1130" y="320" width="40" height="40" as="geometry"/>
                </mxCell>
                <mxCell id="QHPVyKlQaQrpY1hnG4tH-67" value="" style="endArrow=none;html=1;entryX=0.5;entryY=1;entryDx=0;entryDy=0;exitX=0.5;exitY=0;exitDx=0;exitDy=0;strokeColor=#CC0000;" edge="1" parent="1">
                    <mxGeometry width="50" height="50" relative="1" as="geometry">
                        <mxPoint x="1070" y="400" as="sourcePoint"/>
                        <mxPoint x="1150" y="360" as="targetPoint"/>
                    </mxGeometry>
                </mxCell>
                <mxCell id="QHPVyKlQaQrpY1hnG4tH-68" value="" style="endArrow=none;html=1;entryX=0.5;entryY=1;entryDx=0;entryDy=0;exitX=0.5;exitY=0;exitDx=0;exitDy=0;" edge="1" parent="1">
                    <mxGeometry width="50" height="50" relative="1" as="geometry">
                        <mxPoint x="1230" y="400" as="sourcePoint"/>
                        <mxPoint x="1150" y="360" as="targetPoint"/>
                    </mxGeometry>
                </mxCell>
                <mxCell id="QHPVyKlQaQrpY1hnG4tH-69" value="" style="endArrow=none;html=1;entryX=0.5;entryY=1;entryDx=0;entryDy=0;exitX=0.5;exitY=0;exitDx=0;exitDy=0;" edge="1" parent="1" source="QHPVyKlQaQrpY1hnG4tH-42" target="QHPVyKlQaQrpY1hnG4tH-40">
                    <mxGeometry width="50" height="50" relative="1" as="geometry">
                        <mxPoint x="790" y="580" as="sourcePoint"/>
                        <mxPoint x="840" y="530" as="targetPoint"/>
                    </mxGeometry>
                </mxCell>
                <mxCell id="QHPVyKlQaQrpY1hnG4tH-70" value="" style="endArrow=none;html=1;entryX=0.5;entryY=1;entryDx=0;entryDy=0;exitX=0.5;exitY=0;exitDx=0;exitDy=0;" edge="1" parent="1" source="QHPVyKlQaQrpY1hnG4tH-43" target="QHPVyKlQaQrpY1hnG4tH-40">
                    <mxGeometry width="50" height="50" relative="1" as="geometry">
                        <mxPoint x="720" y="410" as="sourcePoint"/>
                        <mxPoint x="840" y="370" as="targetPoint"/>
                    </mxGeometry>
                </mxCell>
                <mxCell id="QHPVyKlQaQrpY1hnG4tH-71" value="" style="endArrow=none;html=1;entryX=0.5;entryY=1;entryDx=0;entryDy=0;exitX=0.5;exitY=0;exitDx=0;exitDy=0;" edge="1" parent="1" source="QHPVyKlQaQrpY1hnG4tH-40" target="QHPVyKlQaQrpY1hnG4tH-39">
                    <mxGeometry width="50" height="50" relative="1" as="geometry">
                        <mxPoint x="800" y="600" as="sourcePoint"/>
                        <mxPoint x="850" y="550" as="targetPoint"/>
                    </mxGeometry>
                </mxCell>
                <mxCell id="QHPVyKlQaQrpY1hnG4tH-72" value="" style="endArrow=none;html=1;entryX=0.5;entryY=1;entryDx=0;entryDy=0;exitX=0.5;exitY=0;exitDx=0;exitDy=0;strokeColor=#CC0000;" edge="1" parent="1" source="QHPVyKlQaQrpY1hnG4tH-66" target="QHPVyKlQaQrpY1hnG4tH-39">
                    <mxGeometry width="50" height="50" relative="1" as="geometry">
                        <mxPoint x="800" y="600" as="sourcePoint"/>
                        <mxPoint x="850" y="550" as="targetPoint"/>
                    </mxGeometry>
                </mxCell>
            </root>
        </mxGraphModel>
    </diagram>
    <diagram id="jsBQX8dZorNEYIb4F6ag" name="Page-6">
        <mxGraphModel dx="1327" dy="792" grid="0" gridSize="10" guides="1" tooltips="1" connect="1" arrows="1" fold="1" page="0" pageScale="1" pageWidth="850" pageHeight="1100" math="0" shadow="0">
            <root>
                <mxCell id="0"/>
                <mxCell id="1" parent="0"/>
                <mxCell id="NngfGYSYqmNwnZ4X08zh-59" value="" style="rounded=0;whiteSpace=wrap;html=1;strokeColor=default;strokeWidth=1;fillColor=none;" vertex="1" parent="1">
                    <mxGeometry x="1060" y="360" width="60" height="60" as="geometry"/>
                </mxCell>
                <mxCell id="NngfGYSYqmNwnZ4X08zh-60" value="" style="rounded=0;whiteSpace=wrap;html=1;strokeColor=default;strokeWidth=1;fillColor=none;" vertex="1" parent="1">
                    <mxGeometry x="1160" y="360" width="60" height="60" as="geometry"/>
                </mxCell>
                <mxCell id="NngfGYSYqmNwnZ4X08zh-58" value="" style="rounded=0;whiteSpace=wrap;html=1;strokeColor=default;strokeWidth=1;fillColor=none;" vertex="1" parent="1">
                    <mxGeometry x="870" y="360" width="60" height="60" as="geometry"/>
                </mxCell>
                <mxCell id="NngfGYSYqmNwnZ4X08zh-57" value="" style="rounded=0;whiteSpace=wrap;html=1;strokeColor=default;strokeWidth=1;fillColor=none;" vertex="1" parent="1">
                    <mxGeometry x="790" y="360" width="60" height="60" as="geometry"/>
                </mxCell>
                <mxCell id="NngfGYSYqmNwnZ4X08zh-56" value="" style="rounded=0;whiteSpace=wrap;html=1;strokeColor=default;strokeWidth=1;fillColor=none;" vertex="1" parent="1">
                    <mxGeometry x="710" y="360" width="60" height="60" as="geometry"/>
                </mxCell>
                <mxCell id="NngfGYSYqmNwnZ4X08zh-21" value="" style="triangle;whiteSpace=wrap;html=1;strokeColor=#FFFFFF;fillColor=#4A4A4A;rotation=-135;strokeWidth=3;" vertex="1" parent="1">
                    <mxGeometry y="160" width="485.56" height="450" as="geometry"/>
                </mxCell>
                <mxCell id="NngfGYSYqmNwnZ4X08zh-22" value="" style="triangle;whiteSpace=wrap;html=1;strokeColor=default;fillColor=#18141D;rotation=-135;strokeWidth=3;" vertex="1" parent="1">
                    <mxGeometry x="43.83000000000004" y="197.80999999999995" width="155.56" height="135.73" as="geometry"/>
                </mxCell>
                <mxCell id="NngfGYSYqmNwnZ4X08zh-16" value="" style="ellipse;whiteSpace=wrap;html=1;aspect=fixed;strokeColor=#FFFFFF;fillColor=none;" vertex="1" parent="1">
                    <mxGeometry x="309" y="455" width="80" height="80" as="geometry"/>
                </mxCell>
                <mxCell id="NngfGYSYqmNwnZ4X08zh-15" value="" style="ellipse;whiteSpace=wrap;html=1;aspect=fixed;strokeColor=#FFFFFF;fillColor=none;" vertex="1" parent="1">
                    <mxGeometry x="221" y="422" width="88" height="88" as="geometry"/>
                </mxCell>
                <mxCell id="NngfGYSYqmNwnZ4X08zh-8" value="" style="ellipse;whiteSpace=wrap;html=1;aspect=fixed;strokeColor=#FFFFFF;fillColor=none;" vertex="1" parent="1">
                    <mxGeometry x="181" y="332" width="60" height="60" as="geometry"/>
                </mxCell>
                <mxCell id="NngfGYSYqmNwnZ4X08zh-18" value="" style="ellipse;whiteSpace=wrap;html=1;aspect=fixed;strokeColor=#FFFFFF;fillColor=none;" vertex="1" parent="1">
                    <mxGeometry x="272.5" y="190" width="175" height="175" as="geometry"/>
                </mxCell>
                <mxCell id="NngfGYSYqmNwnZ4X08zh-14" value="" style="ellipse;whiteSpace=wrap;html=1;aspect=fixed;strokeColor=#FFFFFF;fillColor=none;" vertex="1" parent="1">
                    <mxGeometry x="204" y="406" width="187" height="187" as="geometry"/>
                </mxCell>
                <mxCell id="NngfGYSYqmNwnZ4X08zh-17" value="" style="ellipse;whiteSpace=wrap;html=1;aspect=fixed;strokeColor=#FFFFFF;fillColor=none;" vertex="1" parent="1">
                    <mxGeometry x="247" y="510" width="80" height="80" as="geometry"/>
                </mxCell>
                <mxCell id="NngfGYSYqmNwnZ4X08zh-3" value="" style="ellipse;shape=cloud;whiteSpace=wrap;html=1;strokeColor=#FFFFFF;fillColor=#FFFF66;" vertex="1" parent="1">
                    <mxGeometry x="180" y="330" width="60" height="60" as="geometry"/>
                </mxCell>
                <mxCell id="NngfGYSYqmNwnZ4X08zh-4" value="" style="triangle;whiteSpace=wrap;html=1;strokeColor=#FFFFFF;fillColor=#66FF66;" vertex="1" parent="1">
                    <mxGeometry x="247" y="428" width="61" height="77" as="geometry"/>
                </mxCell>
                <mxCell id="NngfGYSYqmNwnZ4X08zh-5" value="" style="shape=parallelogram;perimeter=parallelogramPerimeter;whiteSpace=wrap;html=1;fixedSize=1;strokeColor=#FFFFFF;fillColor=#66FFFF;" vertex="1" parent="1">
                    <mxGeometry x="252.5" y="531" width="69" height="38" as="geometry"/>
                </mxCell>
                <mxCell id="NngfGYSYqmNwnZ4X08zh-7" value="" style="shape=hexagon;perimeter=hexagonPerimeter2;whiteSpace=wrap;html=1;fixedSize=1;strokeColor=#FFFFFF;fillColor=#6666FF;" vertex="1" parent="1">
                    <mxGeometry x="309" y="470" width="80" height="50" as="geometry"/>
                </mxCell>
                <mxCell id="NngfGYSYqmNwnZ4X08zh-19" value="" style="ellipse;whiteSpace=wrap;html=1;aspect=fixed;strokeColor=#FFFFFF;fillColor=none;" vertex="1" parent="1">
                    <mxGeometry x="308" y="190" width="100" height="100" as="geometry"/>
                </mxCell>
                <mxCell id="NngfGYSYqmNwnZ4X08zh-20" value="" style="ellipse;whiteSpace=wrap;html=1;aspect=fixed;strokeColor=#FFFFFF;fillColor=none;" vertex="1" parent="1">
                    <mxGeometry x="308" y="265" width="100" height="100" as="geometry"/>
                </mxCell>
                <mxCell id="NngfGYSYqmNwnZ4X08zh-1" value="" style="shape=tape;whiteSpace=wrap;html=1;strokeColor=#FFFFFF;fillColor=#6600CC;" vertex="1" parent="1">
                    <mxGeometry x="311" y="217" width="94" height="46" as="geometry"/>
                </mxCell>
                <mxCell id="NngfGYSYqmNwnZ4X08zh-2" value="" style="shape=step;perimeter=stepPerimeter;whiteSpace=wrap;html=1;fixedSize=1;strokeColor=#FFFFFF;fillColor=#FF66B3;" vertex="1" parent="1">
                    <mxGeometry x="313" y="295" width="94" height="40" as="geometry"/>
                </mxCell>
                <mxCell id="NngfGYSYqmNwnZ4X08zh-23" value="" style="ellipse;whiteSpace=wrap;html=1;aspect=fixed;strokeColor=default;strokeWidth=1;fillColor=none;" vertex="1" parent="1">
                    <mxGeometry x="960" y="200" width="40" height="40" as="geometry"/>
                </mxCell>
                <mxCell id="NngfGYSYqmNwnZ4X08zh-25" value="" style="ellipse;shape=cloud;whiteSpace=wrap;html=1;strokeColor=#FFFFFF;fillColor=#FFFF66;" vertex="1" parent="1">
                    <mxGeometry x="949.5" y="273" width="60" height="60" as="geometry"/>
                </mxCell>
                <mxCell id="NngfGYSYqmNwnZ4X08zh-30" value="" style="triangle;whiteSpace=wrap;html=1;strokeColor=#FFFFFF;fillColor=#66FF66;" vertex="1" parent="1">
                    <mxGeometry x="710" y="360" width="59" height="60" as="geometry"/>
                </mxCell>
                <mxCell id="NngfGYSYqmNwnZ4X08zh-31" value="" style="shape=parallelogram;perimeter=parallelogramPerimeter;whiteSpace=wrap;html=1;fixedSize=1;strokeColor=#FFFFFF;fillColor=#66FFFF;" vertex="1" parent="1">
                    <mxGeometry x="870" y="376" width="60" height="30" as="geometry"/>
                </mxCell>
                <mxCell id="NngfGYSYqmNwnZ4X08zh-32" value="" style="shape=hexagon;perimeter=hexagonPerimeter2;whiteSpace=wrap;html=1;fixedSize=1;strokeColor=#FFFFFF;fillColor=#6666FF;" vertex="1" parent="1">
                    <mxGeometry x="790" y="370.5" width="60" height="39" as="geometry"/>
                </mxCell>
                <mxCell id="NngfGYSYqmNwnZ4X08zh-36" value="" style="shape=tape;whiteSpace=wrap;html=1;strokeColor=#FFFFFF;fillColor=#6600CC;" vertex="1" parent="1">
                    <mxGeometry x="1160" y="370.5" width="60" height="38" as="geometry"/>
                </mxCell>
                <mxCell id="NngfGYSYqmNwnZ4X08zh-37" value="" style="shape=step;perimeter=stepPerimeter;whiteSpace=wrap;html=1;fixedSize=1;strokeColor=#FFFFFF;fillColor=#FF66B3;" vertex="1" parent="1">
                    <mxGeometry x="1060" y="376" width="60" height="30" as="geometry"/>
                </mxCell>
                <mxCell id="NngfGYSYqmNwnZ4X08zh-40" value="" style="ellipse;whiteSpace=wrap;html=1;aspect=fixed;strokeColor=default;strokeWidth=1;fillColor=none;" vertex="1" parent="1">
                    <mxGeometry x="800" y="280" width="40" height="40" as="geometry"/>
                </mxCell>
                <mxCell id="NngfGYSYqmNwnZ4X08zh-41" value="" style="ellipse;whiteSpace=wrap;html=1;aspect=fixed;strokeColor=default;strokeWidth=1;fillColor=none;" vertex="1" parent="1">
                    <mxGeometry x="1120" y="280" width="40" height="40" as="geometry"/>
                </mxCell>
                <mxCell id="NngfGYSYqmNwnZ4X08zh-42" value="" style="endArrow=none;html=1;strokeColor=#FFFFFF;strokeWidth=1;entryX=0.5;entryY=1;entryDx=0;entryDy=0;" edge="1" parent="1" target="NngfGYSYqmNwnZ4X08zh-23">
                    <mxGeometry width="50" height="50" relative="1" as="geometry">
                        <mxPoint x="820" y="280" as="sourcePoint"/>
                        <mxPoint x="870" y="230" as="targetPoint"/>
                    </mxGeometry>
                </mxCell>
                <mxCell id="NngfGYSYqmNwnZ4X08zh-43" value="" style="endArrow=none;html=1;strokeColor=#FFFFFF;strokeWidth=1;exitX=0.5;exitY=0;exitDx=0;exitDy=0;" edge="1" parent="1" source="NngfGYSYqmNwnZ4X08zh-41">
                    <mxGeometry width="50" height="50" relative="1" as="geometry">
                        <mxPoint x="830" y="290" as="sourcePoint"/>
                        <mxPoint x="980" y="240" as="targetPoint"/>
                    </mxGeometry>
                </mxCell>
                <mxCell id="NngfGYSYqmNwnZ4X08zh-44" value="" style="endArrow=none;html=1;strokeColor=#FFFFFF;strokeWidth=1;exitX=0.5;exitY=0;exitDx=0;exitDy=0;" edge="1" parent="1">
                    <mxGeometry width="50" height="50" relative="1" as="geometry">
                        <mxPoint x="980.5" y="275" as="sourcePoint"/>
                        <mxPoint x="980" y="240" as="targetPoint"/>
                    </mxGeometry>
                </mxCell>
                <mxCell id="NngfGYSYqmNwnZ4X08zh-45" value="" style="endArrow=none;html=1;strokeColor=#FFFFFF;strokeWidth=1;entryX=0.5;entryY=1;entryDx=0;entryDy=0;exitX=0.5;exitY=0;exitDx=0;exitDy=0;" edge="1" parent="1" source="NngfGYSYqmNwnZ4X08zh-56" target="NngfGYSYqmNwnZ4X08zh-40">
                    <mxGeometry width="50" height="50" relative="1" as="geometry">
                        <mxPoint x="740" y="355.5" as="sourcePoint"/>
                        <mxPoint x="990" y="320" as="targetPoint"/>
                    </mxGeometry>
                </mxCell>
                <mxCell id="NngfGYSYqmNwnZ4X08zh-46" value="" style="endArrow=none;html=1;strokeColor=#FFFFFF;strokeWidth=1;entryX=0.5;entryY=1;entryDx=0;entryDy=0;exitX=0.5;exitY=0;exitDx=0;exitDy=0;" edge="1" parent="1" source="NngfGYSYqmNwnZ4X08zh-57" target="NngfGYSYqmNwnZ4X08zh-40">
                    <mxGeometry width="50" height="50" relative="1" as="geometry">
                        <mxPoint x="820" y="354.5" as="sourcePoint"/>
                        <mxPoint x="830" y="330" as="targetPoint"/>
                    </mxGeometry>
                </mxCell>
                <mxCell id="NngfGYSYqmNwnZ4X08zh-47" value="" style="endArrow=none;html=1;strokeColor=#FFFFFF;strokeWidth=1;entryX=0.5;entryY=1;entryDx=0;entryDy=0;exitX=0.5;exitY=0;exitDx=0;exitDy=0;" edge="1" parent="1" source="NngfGYSYqmNwnZ4X08zh-58" target="NngfGYSYqmNwnZ4X08zh-40">
                    <mxGeometry width="50" height="50" relative="1" as="geometry">
                        <mxPoint x="900" y="354.5" as="sourcePoint"/>
                        <mxPoint x="840" y="340" as="targetPoint"/>
                    </mxGeometry>
                </mxCell>
                <mxCell id="NngfGYSYqmNwnZ4X08zh-48" value="" style="endArrow=none;html=1;strokeColor=#FFFFFF;strokeWidth=1;entryX=0.5;entryY=1;entryDx=0;entryDy=0;exitX=0.5;exitY=0;exitDx=0;exitDy=0;" edge="1" parent="1" source="NngfGYSYqmNwnZ4X08zh-60" target="NngfGYSYqmNwnZ4X08zh-41">
                    <mxGeometry width="50" height="50" relative="1" as="geometry">
                        <mxPoint x="1190" y="354.5" as="sourcePoint"/>
                        <mxPoint x="850" y="350" as="targetPoint"/>
                    </mxGeometry>
                </mxCell>
                <mxCell id="NngfGYSYqmNwnZ4X08zh-49" value="" style="endArrow=none;html=1;strokeColor=#FFFFFF;strokeWidth=1;entryX=0.5;entryY=1;entryDx=0;entryDy=0;exitX=0.5;exitY=0;exitDx=0;exitDy=0;" edge="1" parent="1" source="NngfGYSYqmNwnZ4X08zh-59" target="NngfGYSYqmNwnZ4X08zh-41">
                    <mxGeometry width="50" height="50" relative="1" as="geometry">
                        <mxPoint x="1090" y="355.5" as="sourcePoint"/>
                        <mxPoint x="1150.0000000000005" y="330" as="targetPoint"/>
                    </mxGeometry>
                </mxCell>
                <mxCell id="NngfGYSYqmNwnZ4X08zh-50" value="intersect" style="text;html=1;align=center;verticalAlign=middle;resizable=0;points=[];autosize=1;strokeColor=none;fillColor=none;" vertex="1" parent="1">
                    <mxGeometry x="990" y="205" width="70" height="30" as="geometry"/>
                </mxCell>
                <mxCell id="NngfGYSYqmNwnZ4X08zh-51" value="intersect" style="text;html=1;align=center;verticalAlign=middle;resizable=0;points=[];autosize=1;strokeColor=none;fillColor=none;" vertex="1" parent="1">
                    <mxGeometry x="1155" y="285" width="70" height="30" as="geometry"/>
                </mxCell>
                <mxCell id="NngfGYSYqmNwnZ4X08zh-52" value="intersect" style="text;html=1;align=center;verticalAlign=middle;resizable=0;points=[];autosize=1;strokeColor=none;fillColor=none;" vertex="1" parent="1">
                    <mxGeometry x="1055" y="415.5" width="70" height="30" as="geometry"/>
                </mxCell>
                <mxCell id="NngfGYSYqmNwnZ4X08zh-55" value="" style="rounded=0;whiteSpace=wrap;html=1;strokeColor=default;strokeWidth=1;fillColor=none;" vertex="1" parent="1">
                    <mxGeometry x="950" y="275" width="60" height="60" as="geometry"/>
                </mxCell>
                <mxCell id="NngfGYSYqmNwnZ4X08zh-61" value="outside" style="text;html=1;align=center;verticalAlign=middle;resizable=0;points=[];autosize=1;strokeColor=none;fillColor=none;" vertex="1" parent="1">
                    <mxGeometry x="1160" y="415.5" width="60" height="30" as="geometry"/>
                </mxCell>
                <mxCell id="NngfGYSYqmNwnZ4X08zh-62" value="inside" style="text;html=1;align=center;verticalAlign=middle;resizable=0;points=[];autosize=1;strokeColor=none;fillColor=none;" vertex="1" parent="1">
                    <mxGeometry x="1005" y="285" width="50" height="30" as="geometry"/>
                </mxCell>
                <mxCell id="NngfGYSYqmNwnZ4X08zh-63" value="inside" style="text;html=1;align=center;verticalAlign=middle;resizable=0;points=[];autosize=1;strokeColor=none;fillColor=none;" vertex="1" parent="1">
                    <mxGeometry x="875" y="415.5" width="50" height="30" as="geometry"/>
                </mxCell>
                <mxCell id="NngfGYSYqmNwnZ4X08zh-64" value="inside" style="text;html=1;align=center;verticalAlign=middle;resizable=0;points=[];autosize=1;strokeColor=none;fillColor=none;" vertex="1" parent="1">
                    <mxGeometry x="795" y="415.5" width="50" height="30" as="geometry"/>
                </mxCell>
                <mxCell id="NngfGYSYqmNwnZ4X08zh-65" value="inside" style="text;html=1;align=center;verticalAlign=middle;resizable=0;points=[];autosize=1;strokeColor=none;fillColor=none;" vertex="1" parent="1">
                    <mxGeometry x="714.5" y="415.5" width="50" height="30" as="geometry"/>
                </mxCell>
                <mxCell id="NngfGYSYqmNwnZ4X08zh-66" value="inside" style="text;html=1;align=center;verticalAlign=middle;resizable=0;points=[];autosize=1;strokeColor=none;fillColor=none;" vertex="1" parent="1">
                    <mxGeometry x="840" y="285" width="50" height="30" as="geometry"/>
                </mxCell>
                <mxCell id="NngfGYSYqmNwnZ4X08zh-67" value="&lt;font style=&quot;font-size: 20px;&quot;&gt;eye&lt;/font&gt;" style="text;html=1;align=center;verticalAlign=middle;resizable=0;points=[];autosize=1;strokeColor=none;fillColor=none;" vertex="1" parent="1">
                    <mxGeometry x="16" y="178" width="50" height="36" as="geometry"/>
                </mxCell>
            </root>
        </mxGraphModel>
    </diagram>
</mxfile>